<svg width="381" height="271" viewBox="0 0 381 271" fill="none" xmlns="http://www.w3.org/2000/svg">
<path fill-rule="evenodd" clip-rule="evenodd" d="M0.565089 194.641C10.2225 157.277 107.944 178.563 172.009 167.012C236.074 155.461 311.868 101.666 362.03 128.017C412.192 154.369 358.82 218.068 243.77 232.443C128.72 246.818 -9.0923 232.004 0.565089 194.641Z" fill="#F2F2F2"/>
<g opacity="0.5">
<path opacity="0.5" fill-rule="evenodd" clip-rule="evenodd" d="M40.7372 25.5647C40.1367 26.1647 40.37 28.2969 40.3574 29.086C40.3381 30.3144 40.4145 31.5319 40.5171 32.7559C40.5859 33.5754 40.9735 41.3963 42.0522 40.7957C42.6604 40.4572 42.2791 38.1948 42.278 37.4792C42.2756 35.8883 42.2094 34.3013 42.1035 32.7139C42.0049 31.2402 41.943 29.7837 41.9998 28.3072C42.0136 27.9468 42.3505 23.9474 40.7372 25.5647Z" fill="#89C5CC"/>
<path opacity="0.5" fill-rule="evenodd" clip-rule="evenodd" d="M66.8897 24.6006C61.7308 24.6417 56.5739 24.8963 51.4175 25.0523C48.9362 25.1274 46.4565 25.2229 43.9779 25.3605C43.1333 25.4074 41.3218 25.1368 40.6181 25.5871C39.0561 26.5869 41.5753 26.8207 42.2469 26.7963C52.4515 26.426 62.6597 25.9383 72.8731 25.9153C77.8831 25.9041 82.8907 26.0468 87.9013 26.0148C89.8167 26.0026 91.9376 25.1768 92.4213 27.4077C92.9673 29.9251 92.34 32.728 92.1693 35.2577C92.0553 36.9463 92.0959 38.5999 92.1719 40.2872C92.2207 41.3681 92.0938 42.5861 92.2847 43.6468C92.4685 44.6682 93.2023 45.2807 93.8749 44.1366C94.2768 43.4529 94.0768 41.7648 94.1036 40.9727C94.1396 39.9059 94.1057 38.8395 94.1057 37.7726C94.1054 35.1684 94.4728 32.5745 94.4242 29.9708C94.393 28.2919 94.3039 25.2482 92.1877 24.8448C89.8574 24.4005 86.9931 24.8473 84.6084 24.82C78.6996 24.7525 72.8006 24.5544 66.8897 24.6006Z" fill="#89C5CC"/>
<path opacity="0.5" fill-rule="evenodd" clip-rule="evenodd" d="M52.6733 40.8891C50.728 40.8891 48.7825 40.9008 46.8374 40.933C45.1692 40.9606 42.5463 40.6127 40.9936 41.21C39.9306 41.6188 39.6483 42.8064 40.9936 43.1226C42.4608 43.4678 44.6722 42.9036 46.2073 42.8765C53.9052 42.7405 61.6771 42.5632 69.3642 43.0504C76.5671 43.5067 83.9089 43.9493 91.1225 43.4676C91.7294 43.427 94.8248 43.3038 93.4124 42.1427C92.5883 41.465 89.2485 41.9107 88.1775 41.8783C84.4002 41.7642 80.6192 41.7389 76.8431 41.5956C73.1163 41.4542 69.406 41.0348 65.6779 40.9311C61.3467 40.8105 57.0059 40.8891 52.6733 40.8891Z" fill="#89C5CC"/>
<path opacity="0.5" fill-rule="evenodd" clip-rule="evenodd" d="M50.7269 29.8172C53.7589 29.9497 56.7587 34.3498 53.6909 36.4764C50.8129 38.4718 45.4191 36.285 47.0195 32.4157C46.7894 32.9751 47.3103 31.808 47.3169 31.8002C47.6212 31.4414 48.1677 31.0442 48.5427 30.7614C48.972 30.4377 49.419 30.0814 49.9366 29.9192C50.2764 29.8128 50.223 30.2133 50.7269 29.8172ZM49.2503 28.2302C47.8313 28.7846 47.1836 29.4101 46.2084 30.5418C45.5336 31.3251 44.6734 31.7371 44.681 32.7956C44.6826 33.0298 44.9834 33.2873 45.0354 33.5129C45.1071 33.8248 45.024 34.2243 45.0809 34.5556C45.6679 37.9744 49.7443 39.127 52.7281 38.4815C55.3272 37.9193 57.2711 35.4226 56.669 32.7077C56.0628 29.9748 52.0129 27.1489 49.2503 28.2302Z" fill="#89C5CC"/>
<path opacity="0.5" fill-rule="evenodd" clip-rule="evenodd" d="M47.9863 33.0028C47.9863 34.2326 49.9277 34.2326 49.9277 33.0028C49.9277 31.787 47.9863 31.7347 47.9863 33.0028Z" fill="#89C5CC"/>
<path opacity="0.5" fill-rule="evenodd" clip-rule="evenodd" d="M50.4151 32.7539C50.4151 33.7312 51.9577 33.7312 51.9577 32.7539C51.9577 31.7877 50.4151 31.7464 50.4151 32.7539Z" fill="#89C5CC"/>
<path opacity="0.5" fill-rule="evenodd" clip-rule="evenodd" d="M50.8928 34.7693C50.3988 34.9593 49.7722 34.5653 49.3667 34.8249C48.6485 35.285 49.3685 35.7013 49.7534 35.8862C51.4867 36.7185 51.7952 34.4235 50.8928 34.7693Z" fill="#89C5CC"/>
<path opacity="0.5" fill-rule="evenodd" clip-rule="evenodd" d="M77.3642 32.0436C77.3127 32.0655 77.1287 32.1434 77.3642 32.0436V32.0436ZM69.816 30.9396C68.5187 31.2327 67.4233 32.445 66.0138 32.2828C64.9337 32.1585 64.2024 31.1155 63.1361 30.9639C61.772 30.7698 58.0595 33.8836 60.0114 34.4179C61.1502 34.7297 61.7819 32.6472 62.7879 32.5366C63.5838 32.4491 64.6661 33.4257 65.4908 33.5647C67.0293 33.8241 68.0859 32.9761 69.4365 32.4292C70.9041 31.835 71.7391 32.3701 73.0155 33.0306C74.0229 33.552 74.9717 33.8914 76.1246 33.6763C77.2065 33.4746 78.5656 32.3613 79.6546 32.4755C80.7213 32.5874 81.4826 33.7012 82.5797 33.8047C83.0321 33.8472 83.7054 34.0014 83.6294 33.303C83.5686 32.7437 82.945 32.8385 82.5549 32.6352C81.5517 32.1124 80.6134 31.1865 79.4026 31.2655C78.4919 31.325 77.6627 31.9653 76.8235 32.2716C74.0747 33.2748 72.5295 30.3306 69.816 30.9396Z" fill="#89C5CC"/>
<path opacity="0.5" fill-rule="evenodd" clip-rule="evenodd" d="M72.1123 48.6537C66.8101 48.7024 61.49 48.7812 56.2027 49.2065C54.9492 49.3073 42.1498 50.5166 42.1741 50.6037C42.219 50.7649 43.8652 51.011 43.855 51.0491C43.744 50.7737 43.4904 50.6597 43.0942 50.7073C55.2334 50.7073 67.334 49.6197 79.4891 49.8154C82.5433 49.8644 85.6089 49.8439 88.661 49.9402C89.4229 49.9643 91.3108 50.5108 91.9092 50.1665C93.4796 49.2629 90.6266 49.1586 90.1541 49.1207C84.1723 48.6418 78.1108 48.5938 72.1123 48.6537Z" fill="#69A1AC"/>
<path opacity="0.5" fill-rule="evenodd" clip-rule="evenodd" d="M40.6027 51.2316C39.8101 52.0268 40.54 54.8878 40.5712 55.963C40.6164 57.5177 40.5792 59.0832 40.7155 60.6338C40.8711 62.405 41.1125 64.292 41.5769 66.0104C41.8327 66.9571 42.7304 68.4616 43.0862 66.7414C43.3401 65.5128 42.9545 63.8829 42.8203 62.6313C42.6407 60.957 42.5973 59.3046 42.5906 57.6221C42.5845 56.1561 42.5564 54.684 42.4362 53.2225C42.3738 52.4637 41.9924 49.8484 40.6027 51.2316Z" fill="#69A1AC"/>
<path opacity="0.5" fill-rule="evenodd" clip-rule="evenodd" d="M60.5454 65.8015C56.7828 65.8662 53.012 65.9549 49.2558 66.1901C47.7162 66.2866 46.1779 66.4302 44.644 66.5931C44.331 66.6262 40.8665 66.767 42.4146 68.0464C43.1133 68.6241 45.9875 67.8254 46.9369 67.7422C48.5335 67.6021 50.1298 67.5111 51.7311 67.4433C55.4412 67.2857 59.1627 67.1465 62.8766 67.211C69.6591 67.3287 76.398 67.3813 83.1825 67.2299C84.1464 67.2085 91.698 67.4104 91.9545 66.4068C92.1612 65.5981 89.4606 65.9691 88.9683 65.9838C87.1619 66.0378 85.3554 66.0252 83.5484 66.016C75.8936 65.9767 68.1943 65.6721 60.5454 65.8015Z" fill="#69A1AC"/>
<path opacity="0.5" fill-rule="evenodd" clip-rule="evenodd" d="M90.676 49.8897C90.7954 53.2421 91.366 56.5905 91.5484 59.953C91.6317 61.4901 91.7299 63.0257 91.805 64.5633C91.8293 65.0594 91.6296 66.2545 92.2157 66.5398C93.0197 66.9311 93.128 66.1426 93.2785 65.6092C93.7133 64.0686 93.4192 62.0674 93.3797 60.4849C93.3416 58.9525 93.3389 57.4173 93.226 55.8877C93.1103 54.3249 92.7959 52.7917 92.65 51.2345C92.5883 50.5759 92.804 49.4799 92.1053 49.0712C91.5014 48.7179 90.6499 49.1631 90.676 49.8897Z" fill="#69A1AC"/>
<path opacity="0.5" fill-rule="evenodd" clip-rule="evenodd" d="M53.693 55.4663C53.7073 55.4772 53.7215 55.4884 53.7357 55.4996C53.7215 55.4884 53.7072 55.4774 53.693 55.4663ZM50.4954 54.473C51.6878 54.8139 52.6671 54.6867 53.8061 55.5553C54.7503 56.2755 55.7188 57.3292 56.0319 58.4937C56.7555 61.1841 54.3025 62.6585 52.0029 62.6875C49.6475 62.7171 46.161 62.1705 46.2817 59.1492C46.3743 56.828 48.068 54.5631 50.4954 54.473ZM50.5795 52.9526C47.4876 53.1066 44.9935 56.5812 45.0203 59.5059C45.0525 63.0506 49.0663 63.9638 51.9175 63.9884C55.1354 64.016 58.3443 61.7926 57.482 58.1714C56.7911 55.27 53.5528 52.798 50.5795 52.9526Z" fill="#69A1AC"/>
<path opacity="0.5" fill-rule="evenodd" clip-rule="evenodd" d="M47.4693 57.7119C47.4693 58.7004 49.03 58.7004 49.03 57.7119C49.03 56.7347 47.4693 56.6928 47.4693 57.7119Z" fill="#69A1AC"/>
<path opacity="0.5" fill-rule="evenodd" clip-rule="evenodd" d="M50.7429 57.2782C50.7429 58.2744 52.3159 58.2744 52.3159 57.2782C52.3159 56.2932 50.7429 56.2509 50.7429 57.2782Z" fill="#69A1AC"/>
<path opacity="0.5" fill-rule="evenodd" clip-rule="evenodd" d="M48.9382 59.5327C47.9224 60.5476 51.4909 62.3268 52.3325 60.9149C53.0238 59.7553 51.5188 60.1398 50.9852 60.0771C50.4055 60.0087 49.4115 59.0605 48.9382 59.5327Z" fill="#69A1AC"/>
<path opacity="0.5" fill-rule="evenodd" clip-rule="evenodd" d="M77.4692 57.2986C77.3713 57.3397 77.3713 57.3397 77.4692 57.2986V57.2986ZM64.0684 55.6464C63.0398 55.8395 59.6643 56.979 59.6187 58.2002C59.5354 60.4197 62.8413 58.1463 63.5591 57.8543C65.5092 57.0613 66.5339 58.679 68.4928 58.7643C70.1942 58.8385 71.7586 57.3815 73.3613 57.5538C75.0405 57.7342 75.8482 59.5219 77.7868 58.5727C78.8123 58.0707 78.7865 57.2967 77.6352 57.2237C76.9394 57.1796 76.4613 57.4674 75.7359 57.1678C74.6013 56.6996 74.1443 55.937 72.7866 56.0582C71.7621 56.1495 70.8362 56.7274 69.8362 56.951C67.5463 57.463 66.2762 55.2326 64.0684 55.6464Z" fill="#69A1AC"/>
<path opacity="0.5" fill-rule="evenodd" clip-rule="evenodd" d="M85.369 58.2623C85.2983 58.292 85.2983 58.292 85.369 58.2623V58.2623ZM85.6285 57.3381C85.6399 57.3431 85.7175 57.4507 85.6285 57.3381V57.3381ZM84.4495 56.6326C84.4052 56.6668 84.4052 56.6668 84.4495 56.6326V56.6326ZM84.4752 56.6239C84.7038 56.7608 86.5421 58.0186 85.2069 58.3149C84.5291 58.4652 83.9682 57.1004 84.4752 56.6239ZM83.8665 55.2305C80.9219 56.574 84.0905 61.3818 86.4015 59.4284C87.3739 58.6064 87.5019 56.945 86.5559 56.0886C85.989 55.5754 84.6359 54.8788 83.8665 55.2305Z" fill="#69A1AC"/>
<path opacity="0.5" fill-rule="evenodd" clip-rule="evenodd" d="M56.2249 74.1765C52.5506 74.1775 48.844 74.1003 45.1746 74.3183C44.5571 74.355 42.2046 74.2374 41.8865 74.8834C41.3044 76.0649 43.7249 75.4784 44.0766 75.443C51.3827 74.7111 59.0146 75.1322 66.3448 75.3408C72.3399 75.5113 78.3028 75.6172 84.2908 75.9264C85.8647 76.0077 87.4373 76.0975 89.0102 76.1924C89.5228 76.2234 90.813 76.5634 90.9211 75.744C91.0211 74.9858 89.4116 75.157 89.0096 75.1357C85.8125 74.9673 82.6174 74.791 79.4211 74.6109C71.7277 74.1768 63.9306 74.1751 56.2249 74.1765Z" fill="#89C5CC"/>
<path opacity="0.5" fill-rule="evenodd" clip-rule="evenodd" d="M41.7685 75.4903C41.0822 76.173 41.4039 78.7798 41.3848 79.6415C41.3513 81.1485 41.2802 82.6543 41.2483 84.1609C41.2151 85.7355 41.2612 87.3174 41.3543 88.8897C41.3933 89.5499 41.9348 92.7406 42.7873 90.9147C43.1682 90.0987 42.7781 87.826 42.784 86.9014C42.7944 85.2188 42.885 83.5432 42.9687 81.8629C43.0406 80.4184 43.0433 78.9725 43.1064 77.5277C43.1264 77.0671 43.1808 74.0728 41.7685 75.4903Z" fill="#89C5CC"/>
<path opacity="0.5" fill-rule="evenodd" clip-rule="evenodd" d="M91.5392 88.951C87.9634 89.3178 84.3302 89.1444 80.7408 89.4153C77.6473 89.6487 74.5566 89.7442 71.4551 89.8099C64.432 89.9583 57.3971 90.1029 50.3944 90.6886C48.7985 90.8219 47.2045 90.9636 45.6043 91.0351C44.804 91.0709 41.4459 90.7064 41.1958 91.5506C40.7699 92.9883 44.3611 92.4194 45.1357 92.3969C46.839 92.3476 48.5344 92.2244 50.2329 92.0949C57.3732 91.5506 64.5407 91.3879 71.6962 91.1615C75.5878 91.0387 79.4523 90.7537 83.3353 90.4945C85.2707 90.3654 87.2114 90.3611 89.1465 90.2359C89.6529 90.2032 91.4453 90.2678 91.8095 89.86C92.0598 89.58 92.1231 88.8965 91.5392 88.951Z" fill="#89C5CC"/>
<path opacity="0.5" fill-rule="evenodd" clip-rule="evenodd" d="M90.3271 75.735C90.4498 79.1665 90.6435 82.595 90.7592 86.0265C90.7941 87.0584 90.4825 88.9078 91.0568 89.8179C91.9801 91.2811 92.7008 89.7325 92.8699 88.8207C93.4036 85.9429 92.8298 82.7639 92.6808 79.8684C92.624 78.7638 92.9668 76.3052 92.4333 75.3165C91.9252 74.3748 90.2815 74.4693 90.3271 75.735Z" fill="#89C5CC"/>
<path opacity="0.5" fill-rule="evenodd" clip-rule="evenodd" d="M84.3237 80.6222C85.6937 80.9936 85.8938 83.974 84.348 84.1945C82.0471 84.5226 83.0534 81.2367 84.3237 80.6222ZM83.94 79.437C83.522 79.4239 82.5574 79.3086 82.2999 79.649C82.0844 79.9339 82.3022 80.5347 82.277 80.806C82.1865 81.7757 81.3986 82.3357 81.7508 83.4805C81.9899 84.2576 82.6301 84.9877 83.4104 85.2575C87.5278 86.6816 87.4777 78.7207 83.94 79.437Z" fill="#89C5CC"/>
<path opacity="0.5" fill-rule="evenodd" clip-rule="evenodd" d="M46.7667 79.9717C46.7565 79.9848 46.7462 79.9979 46.7361 80.011C46.7462 79.9979 46.7565 79.9848 46.7667 79.9717ZM50.0006 78.2499C49.9845 78.1122 49.9684 77.9742 49.9522 77.8363C52.1847 78.8908 53.961 80.8523 53.2198 83.4852C52.6542 85.4939 50.6107 86.2063 48.7069 85.7104C46.5994 85.1613 45.5923 83.4231 46.1606 81.2885C46.4227 80.3037 47.2278 78.9804 48.2684 78.6638C48.7528 78.5164 49.8241 78.892 50.0006 78.2499ZM48.6952 77.4161C48.1305 77.4541 47.5808 77.6896 47.12 78.0116C47.5514 77.6464 48.1264 77.429 48.6952 77.4161ZM48.7113 76.1187C47.3164 76.1614 46.4023 77.0065 45.5749 78.0213C45.3153 78.3399 44.4374 79.1844 44.546 79.6137C44.632 79.9529 44.8569 80.4491 45.3305 80.0709C42.8499 85.0181 49.2581 89.2376 53.1702 85.7974C56.8211 82.5869 53.1989 75.9682 48.7113 76.1187Z" fill="#89C5CC"/>
<path opacity="0.5" fill-rule="evenodd" clip-rule="evenodd" d="M47.4439 80.7143C47.4439 81.373 48.4659 81.373 48.4659 80.7143C48.4659 80.0555 47.4439 80.0555 47.4439 80.7143Z" fill="#89C5CC"/>
<path opacity="0.5" fill-rule="evenodd" clip-rule="evenodd" d="M49.188 80.8267C49.188 81.4963 50.2265 81.4963 50.2265 80.8267C50.2265 80.1572 49.188 80.1572 49.188 80.8267Z" fill="#89C5CC"/>
<path opacity="0.5" fill-rule="evenodd" clip-rule="evenodd" d="M49.9794 83.178C49.4936 83.2175 47.7153 83.0523 47.4031 83.4782C46.8815 84.1897 47.714 84.2145 48.1229 84.2913C48.4913 84.3606 50.0923 84.3214 50.318 83.9942C50.5174 83.705 50.4708 83.1362 49.9794 83.178Z" fill="#89C5CC"/>
<path opacity="0.5" fill-rule="evenodd" clip-rule="evenodd" d="M71.4054 81.3326C71.3219 81.3671 71.3219 81.3671 71.4054 81.3326V81.3326ZM64.686 80.8409C63.5913 80.9214 62.6641 81.5515 61.6175 81.8029C60.5003 82.0714 60.0168 81.5777 59.0009 81.2545C57.9442 80.9184 57.1925 81.0512 56.3431 81.7734C55.8619 82.1826 54.806 83.1245 55.1068 83.8515C55.7956 85.5153 57.3547 82.8083 58.0879 82.6823C59.2319 82.486 60.2497 83.4868 61.5687 83.2005C62.7641 82.9412 63.8247 82.1199 65.0733 82.1111C66.1173 82.1036 67.1012 82.6753 68.1318 82.8136C69.7053 83.0248 70.7385 82.4658 72.1929 82.0507C73.4542 81.6909 74.3387 82.1654 75.525 82.5646C76.0672 82.747 77.8764 83.4102 77.5433 82.2076C77.4492 81.8679 75.0651 81.2605 74.6955 81.1437C73.392 80.7316 72.5666 80.8922 71.325 81.3659C70.2895 81.7612 69.4185 81.9536 68.3082 81.7362C67.085 81.4966 65.9726 80.7431 64.686 80.8409Z" fill="#89C5CC"/>
</g>
<g opacity="0.5">
<path opacity="0.5" fill-rule="evenodd" clip-rule="evenodd" d="M157.993 24.4989C158.17 20.6953 158.413 16.8971 158.541 13.0912C158.604 11.2052 158.654 9.3191 158.702 7.43281C158.712 7.01278 158.723 6.59294 158.733 6.17291C158.764 4.74597 158.595 4.62923 160.03 4.50256C166.432 3.9371 172.859 3.74967 179.269 3.23806C186.999 2.62105 194.769 2.195 202.521 2.00404C205.966 1.919 209.425 1.74292 212.871 1.85009C213.634 1.87383 215.133 1.67507 215.433 2.26888C215.563 2.52539 215.291 3.40813 215.256 3.70415C215.148 4.62887 215.047 5.55678 214.985 6.48611C214.618 11.9671 214.837 17.5864 215.898 22.9843C213.41 21.5804 210.266 20.3727 207.366 20.6124C204.41 20.8567 202.198 22.566 199.832 24.1393C198.493 25.0291 198.042 25.2632 196.707 24.4011C195.556 23.6582 194.467 22.8087 193.381 21.9751C191.706 20.6884 190.125 19.2934 188.5 17.9445C185.512 15.4644 181.397 11.9344 177.27 12.9737C174.322 13.7163 171.6 15.3376 169.042 16.9243C165.24 19.2817 161.799 22.1685 157.993 24.4989ZM209.227 0.160965C194.54 0.160965 179.962 1.58578 165.316 2.35657C163.786 2.43699 162.262 2.5555 160.737 2.70272C159.722 2.80086 157.237 2.38881 156.572 3.25737C156.128 3.83683 156.509 3.92381 156.572 4.4744C156.651 5.16829 156.604 5.99045 156.583 6.72491C156.535 8.49464 156.483 10.2642 156.443 12.0341C156.291 18.7233 156.197 25.4113 156.467 32.0987C156.526 33.5572 157.057 35.5765 156.767 36.9937C156.557 38.0197 155.853 38.6442 157.475 38.8337C159.071 39.0205 161.022 38.5457 162.619 38.3937C164.226 38.2407 165.832 38.0747 167.44 37.942C174.433 37.3654 181.494 37.4525 188.505 37.2608C195.579 37.0676 202.656 37.0552 209.733 37.0513C212.694 37.0497 216.078 37.2162 218.967 36.4008C219.983 36.1138 220.148 35.9724 219.897 34.9632C219.849 34.7717 219.542 34.701 219.452 34.3549C219.33 33.8838 219.393 33.3113 219.364 32.8209C219.271 31.2195 219.238 29.6152 219.163 28.0127C219.037 25.3353 218.575 22.7368 218.234 20.0863C217.841 17.0253 217.861 13.9174 217.853 10.8364C217.848 9.12743 217.892 7.42413 218.029 5.71994C218.117 4.62692 218.655 2.99501 218.382 1.97569C218.247 1.46816 218.024 1.06567 217.496 0.847245C217.162 0.708713 216.881 0.817129 216.55 0.782054C216.158 0.740423 215.913 0.68533 215.443 0.578862C213.431 0.122346 211.278 0.160965 209.227 0.160965Z" fill="#69A1AC"/>
<path opacity="0.5" fill-rule="evenodd" clip-rule="evenodd" d="M201.099 7.43802C201.098 8.50322 200.932 10.0751 201.422 11.0781C202.045 12.3504 202.824 11.9527 203.03 10.7571C203.148 10.0721 203.145 8.04476 202.925 7.43802C202.614 6.5792 201.099 5.99425 201.099 7.43802Z" fill="#89C5CC"/>
<path opacity="0.5" fill-rule="evenodd" clip-rule="evenodd" d="M202.885 7.84933C201.885 7.88458 198.975 7.64455 198.299 8.44863C197.139 9.82775 199.158 10.072 200.025 9.9948C201.028 9.90551 204.128 10.1234 204.8 9.31844C205.924 7.97174 203.671 7.82063 202.885 7.84933Z" fill="#89C5CC"/>
<path opacity="0.5" fill-rule="evenodd" clip-rule="evenodd" d="M164.104 43.4348C168.498 44.1985 167.131 50.9015 162.974 49.349C161.525 48.808 159.391 47.2448 160.192 45.403C160.79 44.0269 162.739 43.3037 164.104 43.4348ZM162.285 41.3507C159.428 41.832 157.475 44.9261 158.454 47.625C159.399 50.2287 162.984 52.1354 165.628 51.1997C168.151 50.3063 169.41 46.9463 168.559 44.4883C167.67 41.9202 164.774 40.9313 162.285 41.3507Z" fill="#89C5CC"/>
<path opacity="0.5" fill-rule="evenodd" clip-rule="evenodd" d="M189.008 44.2188C187.914 44.3097 186.969 45.0761 185.868 45.2117C184.839 45.3386 183.986 44.9862 183.023 44.7046C181.858 44.3643 180.79 44.2146 179.599 44.517C178.69 44.7481 177.793 45.3675 176.848 45.4422C174.989 45.5891 172.828 43.4665 171.377 45.8672C170.681 47.0182 171.691 47.7595 172.732 47.2228C173.817 46.6633 173.284 46.463 174.63 46.7935C175.753 47.069 176.661 47.2187 177.786 46.8325C178.805 46.4828 179.699 45.8428 180.807 45.7708C181.891 45.7005 182.834 46.1948 183.871 46.408C185.146 46.6702 186.274 46.4718 187.481 46.072C188.63 45.6916 189.088 45.4837 190.248 45.8229C190.982 46.0378 192.585 46.7204 193.3 46.1703C194.535 45.2194 192.881 45.0803 192.23 44.9451C191.181 44.7278 190.096 44.1297 189.008 44.2188Z" fill="#89C5CC"/>
<path opacity="0.5" fill-rule="evenodd" clip-rule="evenodd" d="M214.039 43.58C214.048 43.5867 214.057 43.5935 214.065 43.6002C214.057 43.5935 214.048 43.5867 214.039 43.58ZM212.966 43.3552C214.562 43.4581 216.289 46.369 214.173 46.4723C212.684 46.5451 211.018 43.9961 212.966 43.3552ZM212.742 40.9732C207.692 42.3842 210 49.508 214.871 48.6851C217.083 48.3113 217.833 45.7465 217.101 43.848C216.787 43.0326 216.175 42.3451 215.443 41.8758C214.903 41.5297 213.359 40.8012 212.742 40.9732Z" fill="#89C5CC"/>
<path opacity="0.5" fill-rule="evenodd" clip-rule="evenodd" d="M158.444 86.503C158.295 85.84 158.375 84.8267 158.367 84.5925C158.328 83.4943 158.314 82.3956 158.272 81.2978C158.172 78.6817 158.105 76.0505 157.903 73.4402C157.711 70.945 157.224 68.5255 157.21 66.0117C157.201 64.3116 156.729 60.0038 158.217 58.849C160.774 57.3558 159.763 62.6241 159.721 63.5359C159.595 66.281 159.766 68.9051 160.042 71.6329C160.295 74.133 160.004 76.6218 159.907 79.1221C159.855 80.4495 159.827 81.7749 159.727 83.1C159.696 83.5132 159.744 85.3752 159.527 86.367C160.085 86.3431 160.615 86.368 160.911 86.3591C162.983 86.2964 165.054 86.2415 167.126 86.1635C175.093 85.8638 183.065 85.9993 191.031 85.6207C198.566 85.2624 206.128 85.1864 213.668 85.0937C214.328 85.1513 214.623 85.8441 214.199 86.3766C213.785 86.8976 211.865 86.7834 211.266 86.8317C209.142 87.0025 207.023 87.0794 204.892 87.0998C200.407 87.1425 195.938 87.3348 191.459 87.5905C183.502 88.0443 175.533 88.0068 167.572 88.3308C165.64 88.4094 163.707 88.4682 161.774 88.5189C160.754 88.5457 158.084 89.1602 157.579 87.9412C157.222 87.0799 157.718 86.6834 158.444 86.503ZM202.518 55.4986C204.929 55.4763 207.326 55.5185 209.734 55.6566C210.801 55.7179 211.868 55.7771 212.936 55.8223C213.553 55.8485 214.963 55.646 215.505 55.9325C217.63 57.0574 213.3 57.1807 212.774 57.1718C210.566 57.1346 208.362 56.9626 206.153 56.9084C198.031 56.7087 189.849 57.2033 181.734 57.5364C177.831 57.6967 173.929 57.7196 170.027 57.9389C167.894 58.0588 165.763 58.1959 163.629 58.3084C162.646 58.3603 161.662 58.4106 160.677 58.4354C160.071 58.4508 158.836 58.7022 158.275 58.4728C157.798 58.2774 157.411 58.0042 157.674 57.4253C157.957 56.8023 159.187 57.0675 159.707 57.0574C161.587 57.0209 163.463 56.9153 165.339 56.8003C169.599 56.5394 173.851 56.2342 178.12 56.1613C186.255 56.0225 194.38 55.5741 202.518 55.4986ZM213.709 58.2729C213.71 57.1567 215.048 56.9322 215.641 57.6913C216.209 58.4175 215.844 60.6159 215.857 61.4847C215.903 64.3474 216.174 67.1937 216.43 70.0433C216.685 72.8696 216.866 75.6971 217.063 78.5277C217.154 79.836 218.159 85.0575 216.698 85.8198C214.834 86.7925 215.186 81.8433 215.134 80.9411C214.966 78.0369 214.756 75.1288 214.493 72.2318C214.069 67.5485 213.706 62.9752 213.709 58.2729Z" fill="#69A1AC"/>
<path opacity="0.5" fill-rule="evenodd" clip-rule="evenodd" d="M189.095 71.7162C191.65 72.625 194.191 73.5744 196.721 74.5525C198.075 75.0758 199.421 75.6161 200.772 76.1469C201.448 76.4126 204.262 77.0799 204.423 77.7559C204.652 78.7104 201.653 77.538 201.176 77.3853C199.828 76.9543 198.497 76.4718 197.166 75.9919C194.189 74.9183 191.223 73.8108 188.234 72.7699C187.954 72.6725 187.674 72.5754 187.395 72.4787C184.221 73.905 181.054 75.345 177.898 76.8078C176.205 77.5923 174.522 78.3949 172.843 79.2084C171.598 79.8116 169.346 81.5324 167.975 81.5025C167.456 81.491 167.106 81.3797 167.052 80.7505C166.983 79.9459 168.278 79.6153 168.802 79.3535C170.596 78.4555 172.401 77.5802 174.212 76.7159C177.808 74.9995 181.438 73.3516 185.081 71.7366C185.102 71.7273 185.122 71.718 185.143 71.7087C183.123 71.0245 181.097 70.3566 179.067 69.7029C177.907 69.3292 169.771 67.3202 170.068 66.2417C170.401 65.0328 177.607 67.8832 178.715 68.2366C181.443 69.1067 184.164 70.0014 186.871 70.9368C193.366 68.0167 199.93 64.9053 206.706 62.7806C207.132 62.647 207.402 63.0872 207.305 63.4566C207.175 63.951 205.656 64.3512 205.234 64.5397C203.565 65.2853 201.888 66.0125 200.22 66.7586C196.585 68.384 192.943 69.9941 189.308 71.6205C189.237 71.6524 189.166 71.6843 189.095 71.7162Z" fill="#89C5CC"/>
<path opacity="0.5" fill-rule="evenodd" clip-rule="evenodd" d="M165.068 92.1633C166.729 92.4547 167.901 94.0494 167.719 95.7196C167.473 97.9761 165.225 99.0103 163.149 98.7159C160.793 98.3818 160.298 96.3889 161.439 94.4716C161.692 94.0471 161.982 93.5392 162.442 93.3157C162.757 93.1621 163.16 93.298 163.414 93.1741C164.306 92.7399 163.77 92.048 165.068 92.1633ZM164.312 90.6892C162.285 90.9484 158.539 93.2958 158.728 95.6445C158.893 95.9168 159.14 96.0282 159.471 95.9788C159.391 96.4875 159.417 96.9908 159.548 97.4888C159.741 98.1352 160.125 98.6651 160.64 99.086C161.7 99.953 163.149 100.166 164.469 100.014C166.934 99.7301 168.877 98.0443 169.015 95.4789C169.151 92.9747 166.966 90.3537 164.312 90.6892Z" fill="#89C5CC"/>
<path opacity="0.5" fill-rule="evenodd" clip-rule="evenodd" d="M174.13 93.7454C173.221 94.2278 171.782 94.9688 171.249 95.885C170.685 96.8526 171.269 97.9112 172.456 97.4535C173.398 97.0902 173.998 95.9355 175.003 95.5654C175.89 95.2389 176.248 95.4053 177.186 95.7305C178.152 96.0655 178.997 96.3893 180.041 96.3071C181.354 96.2039 182.491 95.4421 183.776 95.2689C184.858 95.1229 185.75 95.5442 186.786 95.7117C187.988 95.9061 188.774 95.4508 189.899 95.2138C190.664 95.0524 192.012 95.7087 192.57 95.4632C193.825 94.9112 192.498 94.2363 191.803 94.0132C190.633 93.6377 189.913 93.9691 188.8 94.2806C187.592 94.6187 187.07 94.3645 185.915 94.054C183.578 93.4256 181.773 94.9449 179.558 94.6687C177.507 94.4129 176.28 92.6065 174.13 93.7454Z" fill="#89C5CC"/>
<path opacity="0.5" fill-rule="evenodd" clip-rule="evenodd" d="M212.341 92.6228C214.59 94.733 212.064 97.7354 209.583 96.0489C208.711 95.4553 208.697 94.5019 209.376 93.6489C209.997 92.8687 211.362 92.5645 212.341 92.6228ZM211.507 90.9176C209.406 91.3266 207.424 92.2916 207.233 94.7185C207.048 97.0865 209.475 98.1862 211.514 98.0309C216.092 97.6821 215.761 90.0947 211.507 90.9176Z" fill="#89C5CC"/>
</g>
<path opacity="0.5" fill-rule="evenodd" clip-rule="evenodd" d="M301.622 6.04301C299.014 6.08086 292.575 6.79344 291.618 9.11092C290.891 10.8701 293.049 10.4838 294.206 9.84374C295.772 8.97813 297.144 8.46009 299.083 8.19672C306.471 7.19284 313.569 10.7928 320.885 11.248C323.657 11.4205 327.002 11.5329 329.648 10.8586C331.532 10.3784 331.778 9.33138 329.628 9.17186C327.8 9.03643 325.778 9.46336 323.905 9.45122C316.153 9.40142 309.263 5.93349 301.622 6.04301Z" fill="#C1DEE2"/>
<g opacity="0.5">
<path opacity="0.5" fill-rule="evenodd" clip-rule="evenodd" d="M33.837 121.113C30.6209 121.15 27.4064 121.268 24.1968 121.472C21.1444 121.665 17.8326 121.518 14.83 122.11C13.9774 122.278 12.8256 123.056 13.9593 123.911C14.7562 124.513 17.6715 123.821 18.6231 123.762C22.1273 123.547 25.6333 123.289 29.1424 123.165C32.4645 123.047 35.7864 123.006 39.1101 122.972C39.6176 122.968 40.4599 122.805 40.9653 122.952C41.6913 123.164 41.5191 123.222 41.5734 124.144C41.672 125.815 41.6447 127.492 41.6116 129.164C41.5796 130.783 41.5198 132.401 41.5256 134.021C41.5297 135.176 41.1607 137.472 41.74 138.475C42.5738 139.919 43.4388 138.35 43.5011 137.391C43.6204 135.555 43.567 133.697 43.5675 131.86C43.5678 130.135 43.5802 128.41 43.5195 126.685C43.4754 125.44 43.6533 123.266 42.9829 122.134C42.3 120.98 40.6559 121.229 39.4562 121.174C37.5848 121.088 35.71 121.094 33.837 121.113Z" fill="#89C5CC"/>
<path opacity="0.5" fill-rule="evenodd" clip-rule="evenodd" d="M13.3747 123.195C13.3782 126.436 13.0035 129.656 12.8986 132.893C12.8504 134.382 12.7527 136.016 13.129 137.477C13.5089 138.953 14.7153 139.272 14.8542 137.625C15.1356 134.29 15.0666 130.832 15.2857 127.469C15.3631 126.282 15.8665 124.107 15.3965 122.996C14.9827 122.016 13.3729 121.829 13.3747 123.195Z" fill="#89C5CC"/>
<path opacity="0.5" fill-rule="evenodd" clip-rule="evenodd" d="M43.5326 137.482C37.9474 138.221 32.1086 137.952 26.4836 138.068C23.7849 138.124 21.0867 138.127 18.3876 138.156C17.4457 138.165 15.0535 137.807 14.2386 138.337C12.9414 139.18 14.3489 139.831 15.2077 139.85C20.5341 139.967 25.9198 139.721 31.2452 139.547C33.6379 139.468 36.0383 139.43 38.4246 139.226C39.8937 139.101 41.4991 138.979 42.9257 138.584C43.2296 138.5 43.8914 138.518 43.9595 138.103C44.0015 137.846 43.9254 137.427 43.5326 137.482Z" fill="#89C5CC"/>
<path opacity="0.5" fill-rule="evenodd" clip-rule="evenodd" d="M20.3077 142.193C18.7555 142.202 14.0777 141.48 13.4349 142.995C12.5779 145.015 15.9212 144.544 16.8203 144.521C18.8625 144.468 20.9033 144.463 22.9461 144.463C24.9504 144.464 26.9546 144.451 28.9586 144.404C29.5391 144.39 30.8905 144.631 31.2245 143.931C31.4783 143.4 31.2778 142.98 30.8096 142.699C29.6832 142.021 26.7569 142.414 25.438 142.353C23.7305 142.274 22.0174 142.193 20.3077 142.193Z" fill="#89C5CC"/>
<path opacity="0.5" fill-rule="evenodd" clip-rule="evenodd" d="M39.1922 142.567C38.3051 142.62 36.5107 142.254 35.716 142.66C34.8128 143.122 35.131 143.845 35.9109 144.163C36.4509 144.383 38.6662 144.267 39.1922 144.012C39.7406 143.746 40.3606 142.495 39.1922 142.567Z" fill="#89C5CC"/>
<path opacity="0.5" fill-rule="evenodd" clip-rule="evenodd" d="M48.9181 123.513C47.9706 123.773 48.2581 129.156 48.2336 130.009C48.1667 132.347 47.9041 135.287 48.6804 137.539C49.1754 138.974 50.1263 138.78 49.9643 137.269C49.822 135.942 49.5779 134.631 49.4723 133.296C49.2333 130.275 48.9082 127.054 49.1338 124.03C49.23 124.206 50.1288 125.835 50.3403 125.714C50.2764 125.752 49.3036 123.411 48.9181 123.513Z" fill="#89C5CC"/>
<path opacity="0.5" fill-rule="evenodd" clip-rule="evenodd" d="M59.5759 121.531C57.6584 121.559 55.741 121.593 53.8241 121.646C52.3 121.689 49.905 121.438 48.5073 122.08C46.8429 122.843 47.6325 124.545 49.1958 124.581C50.5787 124.613 52.0534 124.301 53.4489 124.253C57.2181 124.124 60.994 124.097 64.7649 124.064C68.1754 124.035 71.7307 124.399 75.1112 123.886C75.6127 128.342 74.2565 132.816 74.7178 137.323C74.7893 138.022 74.7572 139.011 75.6474 139.17C76.7708 139.371 76.817 138.258 76.8596 137.46C76.9812 135.184 76.9154 132.905 77.0819 130.626C77.2363 128.513 77.5402 126.354 77.2833 124.239C76.9676 121.635 75.7208 121.844 73.5168 121.735C68.8619 121.507 64.2359 121.462 59.5759 121.531Z" fill="#89C5CC"/>
<path opacity="0.5" fill-rule="evenodd" clip-rule="evenodd" d="M53.1499 137.351C52.1729 137.376 50.5501 137.075 49.9241 138.012C49.2727 138.987 50.0455 139.838 50.9926 140.039C52.1138 140.275 53.5756 139.951 54.7392 139.947C55.9509 139.944 57.163 139.957 58.3747 139.962C63.5698 139.982 68.7872 140.061 73.9786 139.846C74.7036 139.816 76.7612 140.059 77.263 139.363C77.7083 138.746 77.3968 138.192 76.8104 137.878C75.8482 137.362 73.872 137.558 72.8019 137.517C71.4802 137.467 70.157 137.451 68.8346 137.43C63.6153 137.349 58.3687 137.222 53.1499 137.351Z" fill="#89C5CC"/>
<path opacity="0.5" fill-rule="evenodd" clip-rule="evenodd" d="M57.5445 141.861C55.6004 141.894 53.5261 141.808 51.6013 142.103C49.9088 142.363 49.7005 144 51.5223 144.192C53.1966 144.368 55.2264 144.039 56.9087 143.931C57.5063 143.892 58.2012 143.947 58.4876 143.286C58.7865 142.595 58.215 141.933 57.5445 141.861Z" fill="#89C5CC"/>
<path opacity="0.5" fill-rule="evenodd" clip-rule="evenodd" d="M72.2422 142.032C71.2044 142.058 68.1735 141.612 67.6595 142.798C66.8039 144.772 70.9071 144.022 71.6942 143.993C72.6863 143.957 76.5528 144.536 76.5537 142.956C76.5546 141.406 73.1923 142.009 72.2422 142.032Z" fill="#89C5CC"/>
<path opacity="0.5" fill-rule="evenodd" clip-rule="evenodd" d="M13.2069 151.844C13.2094 155.436 12.986 159.062 13.3134 162.645C13.4488 164.127 13.4257 166.965 14.2834 168.222C14.8923 169.113 15.7367 169.051 16.0693 167.98C16.2916 167.264 15.936 165.833 15.8964 165.067C15.8582 164.332 15.8135 163.597 15.7796 162.862C15.6923 160.969 15.6992 159.078 15.7252 157.183C15.7475 155.558 16.1385 153.407 15.7698 151.844C15.4261 150.387 13.2069 150.047 13.2069 151.844Z" fill="#69A1AC"/>
<path opacity="0.5" fill-rule="evenodd" clip-rule="evenodd" d="M49.2823 148.684C43.0546 148.84 36.8129 148.701 30.5907 149.009C27.5221 149.161 24.4655 149.495 21.4122 149.828C19.9122 149.992 18.413 150.161 16.9156 150.346C16.4637 150.401 12.7089 150.547 14.1211 151.976C14.7378 152.6 16.7002 151.948 17.4767 151.856C18.9801 151.678 20.4865 151.524 21.9921 151.364C24.857 151.061 27.7254 150.774 30.6025 150.614C37.3786 150.239 44.1826 150.351 50.9653 150.101C52.8001 150.033 54.6294 149.985 56.4649 150.057C56.9468 150.076 60.4886 150.256 58.9508 148.947C58.2237 148.328 55.4822 148.647 54.5735 148.629C52.8099 148.592 51.0452 148.64 49.2823 148.684Z" fill="#69A1AC"/>
<path opacity="0.5" fill-rule="evenodd" clip-rule="evenodd" d="M58.9817 167.635C58.9808 167.636 58.9798 167.638 58.9788 167.639C58.6395 168.139 57.3857 168 56.8366 168.038C55.1656 168.151 53.5255 168.343 51.8693 168.591C48.5694 169.086 45.2981 169.391 41.9624 169.473C35.3651 169.636 28.7406 169.484 22.1532 169.936C20.6942 170.036 19.2573 170.208 17.8222 170.483C16.7974 170.68 14.8224 171.352 14.7026 169.658C14.558 167.616 19.6768 167.62 21.1404 167.484C27.4248 166.899 33.8125 167.022 40.1161 167.11C43.1644 167.152 46.207 167.245 49.2528 167.059C52.2956 166.873 55.4416 166.922 58.4621 166.594C58.0731 165.085 58.13 163.197 58.0209 161.655C57.7405 157.695 57.8156 153.722 57.635 149.759C57.5556 148.012 59.9326 147.748 60.6376 149.161C61.3497 150.589 60.887 153.422 60.933 155.005C61.0396 158.67 61.7187 162.773 61.0014 166.398C60.7518 167.659 59.6891 168.322 58.9817 167.635Z" fill="#69A1AC"/>
<path opacity="0.5" fill-rule="evenodd" clip-rule="evenodd" d="M62.8124 151.038C61.9711 151.152 61.2693 151.873 61.6449 152.787C62.118 153.937 63.5271 153.488 64.4579 153.415C67.4167 153.183 70.5058 153.646 73.4288 153.297C74.227 153.201 75.3851 152.766 74.6685 151.693C74.1297 150.886 72.1668 151.028 71.3324 150.95C68.4786 150.686 65.6624 150.757 62.8124 151.038Z" fill="#C1DEE2"/>
<path opacity="0.5" fill-rule="evenodd" clip-rule="evenodd" d="M67.806 156.058C66.6586 156.135 63.9875 156.074 63.5039 157.381C62.6366 159.725 66.0339 158.899 67.0683 158.765C68.27 158.611 71.1026 159.025 71.7425 157.859C72.8866 155.774 68.8123 155.988 67.806 156.058Z" fill="#C1DEE2"/>
<path opacity="0.5" fill-rule="evenodd" clip-rule="evenodd" d="M64.8553 161.201C64.311 161.746 64.3102 162.719 64.8553 163.264C65.5228 163.932 66.977 163.793 67.854 163.842C69.0773 163.91 72.5905 164.558 73.198 163.116C74.0175 161.171 70.8361 161.212 69.7897 161.102C68.5803 160.974 65.8577 160.198 64.8553 161.201Z" fill="#C1DEE2"/>
<path opacity="0.5" fill-rule="evenodd" clip-rule="evenodd" d="M21.9749 127.912C21.9749 130.003 25.2382 130.003 25.2382 127.912C25.2382 125.833 21.9749 125.801 21.9749 127.912Z" fill="#89C5CC"/>
<path opacity="0.5" fill-rule="evenodd" clip-rule="evenodd" d="M28.1648 127.936C28.1648 130.326 31.8818 130.322 31.8818 127.936C31.8818 125.554 28.1648 125.53 28.1648 127.936Z" fill="#89C5CC"/>
<path opacity="0.5" fill-rule="evenodd" clip-rule="evenodd" d="M24.4202 131.114C22.6134 131.613 24.2779 133.146 25.1169 133.496C26.4502 134.052 28.2699 134.462 29.6036 133.628C30.1342 133.296 30.5651 132.855 30.1762 132.211C29.7618 131.525 29.1946 131.83 28.5637 131.893C27.7646 131.974 27.1187 131.961 26.347 131.705C25.771 131.513 25.0484 130.941 24.4202 131.114Z" fill="#89C5CC"/>
<path opacity="0.5" fill-rule="evenodd" clip-rule="evenodd" d="M57.1936 128.045C57.1936 129.459 59.3881 129.459 59.3881 128.045C59.3881 126.631 57.1936 126.631 57.1936 128.045Z" fill="#89C5CC"/>
<path opacity="0.5" fill-rule="evenodd" clip-rule="evenodd" d="M62.0467 128.258C62.0467 129.829 64.4845 129.829 64.4845 128.258C64.4845 126.686 62.0467 126.686 62.0467 128.258Z" fill="#89C5CC"/>
<path opacity="0.5" fill-rule="evenodd" clip-rule="evenodd" d="M61.8661 131.667C60.5855 131.833 56.8818 132.208 56.6746 133.788C56.3549 136.225 60.4131 134.253 61.3394 134.061C62.5191 133.817 63.5726 133.881 64.7503 133.928C65.3969 133.954 66.2569 134.059 66.1891 133.074C66.078 131.455 62.9855 131.524 61.8661 131.667Z" fill="#89C5CC"/>
<path opacity="0.5" fill-rule="evenodd" clip-rule="evenodd" d="M29.6691 154.14C28.741 154.388 27.5268 155.994 28.1654 156.977C29.2125 158.588 29.6743 156.114 30.1125 155.876C30.9099 155.442 31.5572 157.026 32.3905 156.195C33.7054 154.884 30.497 153.919 29.6691 154.14Z" fill="#69A1AC"/>
<path opacity="0.5" fill-rule="evenodd" clip-rule="evenodd" d="M40.3046 152.949C39.2038 152.959 36.88 154.519 36.7154 155.67C36.6177 156.354 37.071 157.012 37.808 157.021C38.8116 157.033 39.1305 155.727 40.0005 155.454C40.9389 155.16 40.7996 155.838 41.6101 156.189C42.2032 156.447 42.945 156.339 43.1511 155.609C43.5398 154.233 41.4356 152.927 40.3046 152.949Z" fill="#69A1AC"/>
<path opacity="0.5" fill-rule="evenodd" clip-rule="evenodd" d="M31.8788 159.542C30.1182 160.574 33.0151 162.787 34.0194 163.064C35.5356 163.482 38.587 162.702 38.9463 160.849C39.0893 160.111 38.6283 159.443 37.8148 159.575C37.145 159.684 36.7154 160.525 36.0951 160.826C35.2577 161.232 34.5132 161.205 33.8017 160.593C33.222 160.094 32.9116 158.939 31.8788 159.542Z" fill="#69A1AC"/>
<path opacity="0.5" fill-rule="evenodd" clip-rule="evenodd" d="M33.1548 174.797C31.5818 175.132 29.9828 174.907 28.4022 175.223C26.7905 175.545 25.8273 176.154 24.3299 175.54C24.2594 175.51 24.1891 175.481 24.1189 175.451C22.9599 174.951 21.7451 174.803 20.532 175.6C19.8141 176.071 17.6347 177.7 17.8974 178.695C18.4666 180.85 20.9189 177.47 21.5443 177.141C22.7367 176.512 23.5543 177.315 24.7819 177.541C26.2524 177.813 27.4357 177.035 28.8208 176.725C30.4409 176.363 32.2635 176.237 33.9117 176.043C34.5629 175.967 37.0293 176.482 37.252 175.671C37.6345 174.278 33.7731 174.665 33.1548 174.797Z" fill="#C1DEE2"/>
<path opacity="0.5" fill-rule="evenodd" clip-rule="evenodd" d="M44.5036 179.138C44.6064 179.216 44.5239 179.154 44.5036 179.138V179.138ZM48.9091 174.712C50.2557 174.576 54.5642 173.613 55.4488 175.005C56.025 175.912 55.1106 179.26 54.2383 179.693C53.5411 180.039 51.9172 179.656 51.1522 179.629C49.7288 179.579 48.3023 179.557 46.8805 179.468C46.4037 179.438 44.8693 179.526 44.4954 179.104C44.054 178.605 44.0736 175.946 43.9697 175.287C45.2079 175.688 47.6145 174.844 48.9091 174.712ZM51.7846 173.347C50.0599 173.422 48.3356 173.552 46.6238 173.783C45.6696 173.912 44.7029 174.255 43.8216 174.418C43.5375 174.47 43.0764 174.325 42.7281 174.493C41.7102 174.985 42.6015 178.313 42.847 179.201C43.2241 180.567 44.1729 180.788 45.5024 180.917C47.2536 181.087 49.0408 181.033 50.7975 181.012C52.4908 180.991 54.7741 181.366 55.7242 179.666C56.3384 178.567 56.9972 176.007 56.4722 174.782C55.7816 173.17 53.2029 173.288 51.7846 173.347Z" fill="#C1DEE2"/>
<path opacity="0.5" fill-rule="evenodd" clip-rule="evenodd" d="M71.0978 180.053C71.0056 180.171 71.0056 180.171 71.0978 180.053V180.053ZM71.4757 179.597C71.4472 179.64 71.3148 179.78 71.4757 179.597V179.597ZM67.3628 179.472C68.123 179.328 68.8835 179.187 69.6446 179.048C68.9239 180.057 68.1649 179.64 66.9337 179.552C67.0767 179.525 67.2198 179.498 67.3628 179.472ZM63.7357 179.114C63.9285 179.05 64.121 178.985 64.3138 178.921C64.308 179.068 64.3395 179.205 64.4083 179.333C64.0784 179.297 63.7488 179.259 63.4196 179.218C63.5249 179.184 63.6304 179.149 63.7357 179.114ZM62.0549 177.872C62.0441 177.607 62.4422 177.789 62.6704 177.772C62.2305 178.159 62.0254 178.193 62.0549 177.872ZM68.066 174.868C68.1239 174.794 68.2005 174.798 68.2959 174.879C68.1918 174.914 67.7909 175.084 68.066 174.868ZM71.9642 174.409C71.9745 174.409 72.1908 174.701 71.9642 174.409V174.409ZM71.8548 174.313C71.9115 174.357 71.9115 174.357 71.8548 174.313V174.313ZM71.3683 174.257C72.1653 174.391 72.1047 175.327 71.3683 174.257V174.257ZM62.0041 174.193C61.8422 174.327 61.8976 174.197 62.0041 174.193V174.193ZM65.0522 172.2C63.6991 172.279 61.2153 172.199 60.0851 172.921C58.6104 173.863 59.3863 177.104 59.5184 178.525C59.7134 180.626 60.7011 181.224 62.678 181.445C65.0372 181.708 67.4612 181.757 69.8326 181.694C71.9683 181.638 73.1846 180.903 73.5758 178.653C73.6956 177.964 73.9997 176.899 73.9901 176.24C73.9836 175.783 73.7558 175.574 73.6696 175.185C73.1791 172.97 72.3589 172.708 70.0907 172.611C68.4212 172.54 66.6904 172.114 65.0522 172.2Z" fill="#89C5CC"/>
</g>
<g opacity="0.5">
<path opacity="0.5" fill-rule="evenodd" clip-rule="evenodd" d="M187.458 119.468C190.898 119.541 194.802 121.447 194.258 125.483C193.859 128.44 191.301 130.84 188.338 131.047C185.153 131.27 181.786 128.824 181.353 125.579C180.867 121.93 184.094 119.395 187.458 119.468ZM185.771 117.825C184.376 118.033 183.044 118.766 181.815 119.423C181.347 119.673 178.97 121.202 180.834 121.581C176.343 128.83 186.913 135.562 192.856 130.852C195.524 128.736 196.929 124.725 195.204 121.586C193.42 118.339 189.189 117.311 185.771 117.825Z" fill="#89C5CC"/>
<path opacity="0.5" fill-rule="evenodd" clip-rule="evenodd" d="M184.949 123.994C184.949 125.348 187.049 125.348 187.049 123.994C187.049 122.641 184.949 122.641 184.949 123.994Z" fill="#89C5CC"/>
<path opacity="0.5" fill-rule="evenodd" clip-rule="evenodd" d="M188.842 124.211C188.842 125.679 191.119 125.679 191.119 124.211C191.119 122.744 188.842 122.744 188.842 124.211Z" fill="#89C5CC"/>
<path opacity="0.5" fill-rule="evenodd" clip-rule="evenodd" d="M186.215 127.114C185.908 128.227 189.402 128.798 189.518 127.51C189.573 126.894 186.428 126.337 186.215 127.114Z" fill="#89C5CC"/>
<path opacity="0.5" fill-rule="evenodd" clip-rule="evenodd" d="M196.455 126.426C200.475 125.943 204.62 126.166 208.659 126.282C209.67 126.311 210.68 126.339 211.691 126.356C212.334 126.367 213.722 126.676 214.283 126.375C216.58 125.142 212.074 124.546 211.436 124.489C207.418 124.158 201.218 124.04 197.188 124.196C195.997 124.243 195.739 126.512 196.455 126.426Z" fill="#89C5CC"/>
<path opacity="0.5" fill-rule="evenodd" clip-rule="evenodd" d="M214.543 146.422C214.578 142.207 214.729 137.964 215.053 133.762C215.185 132.049 215.343 130.339 215.474 128.626C215.536 127.819 215.822 126.69 215.348 125.982C214.86 125.252 213.789 125.101 213.143 125.747C212.37 126.748 212.595 128.428 212.499 129.639C212.351 131.5 212.173 133.361 212.084 135.227C211.912 138.838 211.872 142.512 212.162 146.118C212.299 147.819 212.596 149.48 212.991 151.139C213.171 151.895 214.602 155.26 214.301 155.724C213.835 156.443 210.389 156.171 209.642 156.191C207.724 156.243 205.806 156.276 203.887 156.313C202.245 156.344 200.603 156.367 198.96 156.381C198.308 156.387 194.476 156.271 195.326 157.239C185.82 157.902 176.133 156.795 166.685 156.415C166.208 156.396 165.427 156.261 164.706 156.222C164.62 155.873 164.549 155.562 164.531 155.346C164.407 153.826 164.375 152.302 164.24 150.782C163.994 148.003 163.516 145.252 163.232 142.477C162.949 139.706 162.977 136.926 162.812 134.147C162.784 133.671 162.717 129.772 161.733 128.824C162.2 129.001 162.951 129.024 163.384 128.989C166.889 128.706 170.368 128.097 173.843 127.574C174.837 127.424 177.093 127.53 177.917 127.033C178.631 126.602 178.913 125.093 177.672 125.215C174.207 125.587 170.761 126.163 167.324 126.731C166.404 126.882 165.487 127.045 164.57 127.21C163.958 127.321 162.342 127.313 161.867 127.682C161.29 128.131 161.229 128.436 161.424 128.639C161.152 128.564 160.827 128.681 160.435 129.073C159.696 130.037 160.391 132.409 160.479 133.539C160.585 134.894 160.637 136.251 160.699 137.609C160.818 140.235 161.093 142.826 161.515 145.421C161.989 148.329 162.391 151.248 162.866 154.154C162.989 154.911 163.15 155.649 163.356 156.38C162.077 157.035 162.946 158.075 163.96 158.26C163.968 158.261 163.975 158.262 163.982 158.263C164.299 159.035 164.741 159.749 165.086 158.716C165.112 158.636 165.124 158.539 165.128 158.429C167.746 158.726 170.625 158.541 173.203 158.647C178.787 158.875 184.406 159.218 189.996 159.044C192.209 158.976 194.429 158.779 196.623 158.483C197.909 158.31 199.2 158.104 200.465 157.817C200.555 157.796 200.693 157.775 200.852 157.748C200.878 157.748 200.905 157.747 200.929 157.747C202.866 157.717 204.802 157.666 206.738 157.585C208.362 157.517 209.994 157.483 211.614 157.329C212.62 157.234 214.746 157.252 215.363 156.24C215.925 155.319 214.986 152.948 214.853 151.914C214.618 150.094 214.528 148.256 214.543 146.422Z" fill="#C1DEE2"/>
<path opacity="0.5" fill-rule="evenodd" clip-rule="evenodd" d="M194.912 134.252C193.364 134.385 191.932 135.113 190.37 135.122C189.059 135.129 187.768 134.737 186.45 134.795C184.903 134.862 184.052 135.863 182.697 136.198C181.619 136.465 180.94 135.638 179.991 135.273C178.793 134.811 177.908 135.05 176.882 135.748C176.128 136.261 174.368 137.412 174.382 138.449C174.422 141.591 178.086 137.251 178.825 137.198C179.806 137.128 180.902 138.247 181.946 138.311C183.327 138.396 184.212 137.505 185.483 137.181C186.769 136.853 188.158 137.255 189.447 137.379C190.917 137.522 192.204 137.194 193.627 136.842C195.005 136.502 196.18 136.52 197.581 136.806C198.526 136.999 200.881 138.121 201.295 136.678C201.858 134.714 195.994 134.16 194.912 134.252Z" fill="#89C5CC"/>
<path opacity="0.5" fill-rule="evenodd" clip-rule="evenodd" d="M195.383 140.246C192.211 140.554 189.02 140.824 185.834 140.91C184.454 140.948 179.149 140.356 179.619 142.111C180.022 143.616 187.242 142.668 188.712 142.554C190.335 142.427 191.956 142.251 193.572 142.046C194.144 141.974 195.526 142.049 195.93 141.569C196.315 141.11 196.126 140.171 195.383 140.246Z" fill="#89C5CC"/>
<path opacity="0.5" fill-rule="evenodd" clip-rule="evenodd" d="M173.502 148.237C173.43 148.268 173.43 148.268 173.502 148.237V148.237ZM174.171 148.228C174.962 148.203 174.792 147.786 175.581 148.003C175.945 148.104 175.982 147.955 176.264 148.303C176.815 148.982 176.296 150.46 175.754 151.007C173.745 153.032 171.335 148.318 174.171 148.228ZM174.171 146.241C168.673 146.426 170.973 154.925 175.759 153.19C177.735 152.474 178.978 149.246 177.815 147.432C177.25 146.549 176.529 146.392 175.581 146.331C175.361 146.317 175.085 146.637 174.947 146.622C174.621 146.588 174.651 146.223 174.171 146.241Z" fill="#89C5CC"/>
<path opacity="0.5" fill-rule="evenodd" clip-rule="evenodd" d="M187.32 148.528C187.222 148.498 189.056 149.032 188.856 148.823C189.284 149.269 188.708 150.323 188.224 150.506C187.051 150.952 186.392 149.127 187.32 148.528ZM188.134 146.224C186.412 146.468 185.084 147.185 184.848 149.101C184.631 150.87 185.825 152.66 187.709 152.695C191.814 152.77 191.939 145.693 188.134 146.224Z" fill="#89C5CC"/>
<path opacity="0.5" fill-rule="evenodd" clip-rule="evenodd" d="M206.875 148.606C207.115 151.746 203.861 148.872 206.875 148.606V148.606ZM205.478 145.246C205.194 145.733 205.436 146.25 205.866 146.533C202.028 147.344 202.897 153.124 206.803 152.27C208.789 151.836 209.154 149.746 208.858 148.02C208.717 147.2 206.674 143.201 205.478 145.246Z" fill="#89C5CC"/>
</g>
<path opacity="0.5" fill-rule="evenodd" clip-rule="evenodd" d="M229.298 149.885C227.522 150.122 223.326 151.595 223.363 153.176C223.42 155.646 226.986 152.948 227.779 152.586C232.041 150.637 237.561 153.162 241.998 153.7C244.033 153.946 248.013 154.401 249.81 153.377C253.005 151.555 245.615 152.011 244.673 151.938C239.557 151.541 234.467 149.191 229.298 149.885Z" fill="#C1DEE2"/>
<g opacity="0.5">
<path opacity="0.5" fill-rule="evenodd" clip-rule="evenodd" d="M324.593 135.527C324.592 137.696 324.482 139.911 324.882 142.054C325.003 142.703 325.098 143.945 325.782 144.282C326.469 144.62 327.135 144.24 327.306 143.536C327.505 142.715 327.068 141.488 327.024 140.627C326.963 139.451 326.959 138.274 326.959 137.096C326.958 136.246 327.238 134.878 326.235 134.441C325.489 134.115 324.593 134.72 324.593 135.527Z" fill="#C1DEE2"/>
<path opacity="0.5" fill-rule="evenodd" clip-rule="evenodd" d="M358.863 132.096C351.681 132.818 344.395 132.968 337.187 133.344C333.855 133.518 329.829 133.296 326.69 134.586C326.107 134.826 324.019 136.16 325.714 136.703C326.242 136.873 326.779 136.303 327.213 136.112C327.935 135.795 328.772 135.697 329.542 135.573C336.092 134.52 342.942 134.703 349.559 134.212C351.255 134.086 352.951 133.956 354.643 133.789C355.852 133.67 358.393 132.798 359.508 133.244C361.414 134.006 361.37 138.957 361.407 140.66C361.427 141.54 360.573 144.701 362.271 144.381C363.63 144.124 363.138 140.841 363.032 139.942C362.754 137.588 362.28 131.75 358.863 132.096Z" fill="#C1DEE2"/>
<path opacity="0.5" fill-rule="evenodd" clip-rule="evenodd" d="M361.511 144.267C355.273 144.83 348.891 144.277 342.627 144.499C339.343 144.616 336.063 144.801 332.779 144.909C331.359 144.956 329.938 144.958 328.517 144.968C327.837 144.973 324.744 145.385 326.657 146.733C327.505 147.33 330.204 146.85 331.176 146.838C332.636 146.821 334.096 146.76 335.555 146.703C338.934 146.571 342.312 146.387 345.693 146.296C348.927 146.208 352.163 146.189 355.397 146.102C357.007 146.058 358.638 146.009 360.233 145.774C360.593 145.72 361.762 145.678 362.012 145.277C362.248 144.897 362.082 144.212 361.511 144.267Z" fill="#89C5CC"/>
<path opacity="0.5" fill-rule="evenodd" clip-rule="evenodd" d="M330.851 139.58C330.817 139.659 330.817 139.659 330.851 139.58V139.58ZM333.552 138.758C333.651 138.8 333.651 138.8 333.552 138.758V138.758ZM333.426 138.735C334.882 140.22 332.643 141.993 331.279 140.544C329.832 139.006 332.489 138.74 333.426 138.735ZM331.882 136.489C326.867 137.382 328.643 144.07 333.326 143.103C335.382 142.679 336.558 140.606 335.851 138.615C335.574 137.837 334.971 136.983 334.132 136.738C333.714 136.616 333.343 136.808 332.945 136.763C332.565 136.72 332.354 136.404 331.882 136.489Z" fill="#C1DEE2"/>
<path opacity="0.5" fill-rule="evenodd" clip-rule="evenodd" d="M351.074 138.371C348.05 138.381 345.025 138.509 342.002 138.567C341.074 138.584 338.691 138.169 338.687 139.632C338.683 141.195 341.338 140.618 342.222 140.597C345.221 140.525 348.227 140.394 351.214 140.108C351.969 140.036 354.581 140.16 354.578 139.133C354.575 138.046 351.683 138.371 351.074 138.371Z" fill="#C1DEE2"/>
<path opacity="0.5" fill-rule="evenodd" clip-rule="evenodd" d="M358.296 148.574C350.817 148.775 343.35 148.845 335.877 149.228C333.082 149.371 330.29 149.478 327.491 149.478C326.952 149.478 325.866 149.269 325.359 149.609C323.982 150.53 325.55 151.321 326.447 151.371C332.586 151.712 338.814 150.863 344.95 150.672C348.541 150.56 352.134 150.527 355.724 150.344C356.703 150.294 357.683 150.236 358.66 150.16C359.222 150.117 360.709 150.236 361.164 149.907C363.148 148.47 358.965 148.556 358.296 148.574Z" fill="#89C5CC"/>
<path opacity="0.5" fill-rule="evenodd" clip-rule="evenodd" d="M323.982 152.234C323.911 154.174 323.904 156.081 324.158 158.01C324.258 158.77 324.303 159.631 325.193 159.824C326.001 159.999 326.41 159.388 326.578 158.71C326.986 157.055 326.627 154.672 326.622 152.953C326.62 152.103 326.619 151.151 325.569 150.959C324.768 150.812 324.012 151.391 323.982 152.234Z" fill="#89C5CC"/>
<path opacity="0.5" fill-rule="evenodd" clip-rule="evenodd" d="M366.223 156.912C354.117 157.55 342.026 158.107 329.911 158.62C328.966 158.66 321.627 158.58 324.193 161.141C324.985 161.932 327.027 161.396 328.052 161.346C329.592 161.27 331.133 161.212 332.674 161.134C338.781 160.823 344.903 160.739 351.006 160.39C354.364 160.198 357.715 159.897 361.055 159.506C362.644 159.32 364.617 159.339 366.105 158.716C366.871 158.395 367.697 156.833 366.223 156.912Z" fill="#89C5CC"/>
<path opacity="0.5" fill-rule="evenodd" clip-rule="evenodd" d="M359.262 147.069C358.341 147.986 358.815 149.796 358.884 150.93C358.98 152.491 359.096 154.053 359.29 155.605C359.417 156.613 359.35 158.182 359.888 159.053C360.517 160.073 361.903 159.96 362.472 158.975C362.976 158.104 362.721 156.27 362.708 155.304C362.69 153.969 362.607 152.631 362.527 151.299C362.461 150.185 362.713 148.4 362.101 147.446C361.479 146.478 360.125 146.21 359.262 147.069Z" fill="#89C5CC"/>
<path opacity="0.5" fill-rule="evenodd" clip-rule="evenodd" d="M331.591 154.189C331.483 154.272 331.483 154.272 331.591 154.189V154.189ZM333.741 153.92C335.747 154.323 332.503 156.668 331.478 155.059C331.318 154.807 331.234 154.498 331.491 154.28C331.726 154.08 331.874 154.434 332.095 154.339C332.477 154.175 333.334 153.904 333.741 153.92ZM333.464 151.995C332.095 152.104 330.211 152.188 329.533 153.562C328.622 155.408 330.18 157.216 331.982 157.496C333.716 157.767 336.306 156.805 336.444 154.781C336.556 153.149 335.005 151.87 333.464 151.995Z" fill="#89C5CC"/>
<path opacity="0.5" fill-rule="evenodd" clip-rule="evenodd" d="M344.901 152.971C343.483 152.994 340.695 152.574 339.46 153.266C338.237 153.951 338.782 155.169 339.898 155.461C340.635 155.653 341.84 155.343 342.607 155.311C343.617 155.27 344.627 155.261 345.637 155.247C347.336 155.224 349.034 155.244 350.734 155.244C352.469 155.244 354.234 155.291 355.966 155.164C358.158 155.002 358.099 153.36 355.956 153.154C352.314 152.806 348.554 152.914 344.901 152.971Z" fill="#89C5CC"/>
<path opacity="0.5" fill-rule="evenodd" clip-rule="evenodd" d="M341.278 171.365C341.278 172.146 341.97 171.365 341.965 171.365C341.97 171.365 341.278 170.585 341.278 171.365Z" fill="#89C5CC"/>
<path opacity="0.5" fill-rule="evenodd" clip-rule="evenodd" d="M325.628 165.084C325.672 167.352 325.702 169.622 325.798 171.889C325.829 172.605 325.624 174.005 326.492 174.37C327.458 174.777 327.759 173.763 327.87 173.076C328.222 170.9 327.877 168.415 327.843 166.213C327.832 165.474 327.992 164.445 327.152 164.076C326.468 163.775 325.614 164.334 325.628 165.084Z" fill="#89C5CC"/>
<path opacity="0.5" fill-rule="evenodd" clip-rule="evenodd" d="M362.902 165.119C362.96 165.255 362.96 165.255 362.902 165.119V165.119ZM362.983 165.096C363.03 165.116 363.217 165.195 362.983 165.096V165.096ZM344.672 163.263C341.193 163.318 337.711 163.359 334.233 163.508C332.749 163.572 331.248 163.623 329.769 163.763C328.722 163.862 326.119 163.904 325.44 164.76C324.038 166.528 327.011 166.046 327.651 165.903C328.817 165.641 330.006 165.557 331.197 165.495C333.781 165.358 336.365 165.285 338.952 165.233C345.967 165.092 352.987 165.113 360.003 165.082C360.682 165.079 361.91 164.805 362.537 165.08C363.166 165.356 363.13 166.034 363.195 166.82C363.282 167.867 362.592 169.862 363.118 170.742C363.933 172.108 365.119 170.948 365.301 169.952C365.551 168.577 365.154 166.925 364.765 165.61C364.217 163.754 363.456 163.681 361.663 163.536C359.567 163.366 357.48 163.263 355.377 163.244C351.81 163.211 348.24 163.208 344.672 163.263Z" fill="#89C5CC"/>
<path opacity="0.5" fill-rule="evenodd" clip-rule="evenodd" d="M358.435 172.639C350.888 173.516 343.126 172.999 335.538 173.03C333.693 173.038 331.847 173.053 330.003 173.142C329.03 173.189 326.722 172.921 326.055 173.672C324.649 175.257 327.181 175.487 328.106 175.422C329.975 175.289 331.849 175.228 333.724 175.213C340.325 175.162 346.964 175.471 353.561 175.145C356.324 175.008 359.026 174.535 361.738 174.006C362.339 173.889 366.453 173.107 364.107 172.169C362.721 171.615 359.891 172.469 358.435 172.639Z" fill="#89C5CC"/>
<path opacity="0.5" fill-rule="evenodd" clip-rule="evenodd" d="M336.399 169.739C336.347 169.806 336.347 169.806 336.399 169.739V169.739ZM336.349 169.727C336.331 169.776 336.275 169.895 336.349 169.727V169.727ZM335.873 169.113C335.884 169.127 335.928 169.184 335.873 169.113V169.113ZM335.854 169.108C336.036 169.325 336.158 169.567 336.221 169.834C334.658 170.258 334.055 168.992 335.854 169.108ZM335.755 169.049C335.756 169.049 335.976 169.142 335.755 169.049V169.049ZM333.186 167.163C332.174 168.424 331.339 169.894 332.601 171.334C333.729 172.622 335.999 172.788 337.431 171.928C338.906 171.042 338.778 169.177 337.749 167.96C337.087 167.176 336.55 167.198 335.589 167.07C334.934 166.982 333.742 166.473 333.186 167.163Z" fill="#89C5CC"/>
<path opacity="0.5" fill-rule="evenodd" clip-rule="evenodd" d="M343.648 169.497C343.648 171.176 350.894 170.453 352.184 170.452C353.263 170.45 359.793 171.046 359.324 169.318C358.939 167.898 352.508 168.604 351.138 168.602C349.954 168.6 343.648 167.787 343.648 169.497Z" fill="#89C5CC"/>
</g>
<g opacity="0.5">
<path opacity="0.5" fill-rule="evenodd" clip-rule="evenodd" d="M195.794 191.398C199.423 191.925 203.198 193.633 203.166 197.86C203.14 201.414 200.161 205.196 196.336 204.984C192.894 204.793 189.652 201.026 189.221 197.798C188.998 196.126 189.416 194.325 190.399 192.949C191.687 191.147 193.731 191.149 195.794 191.398ZM194.08 189.1C191.455 189.114 189.535 190.065 187.91 192.07C187.328 192.789 186.65 193.563 186.207 194.378C185.792 195.139 185.865 197.074 187.286 196.167C186.936 199.913 189.124 203.548 192.269 205.468C195.688 207.554 199.552 207.148 202.397 204.223C205.002 201.546 205.919 197.024 204.013 193.713C202.109 190.404 197.696 189.065 194.08 189.1Z" fill="#89C5CC"/>
<path opacity="0.5" fill-rule="evenodd" clip-rule="evenodd" d="M201.951 188.096C200.27 189.329 198.736 190.951 197.461 192.598C196.216 194.206 195.392 196.215 193.896 197.618C193.14 196.795 192.255 194.57 190.747 195.453C189.496 196.185 190.302 197.445 190.911 198.271C192.484 200.407 194.231 201.266 196.249 199.156C198.081 197.241 199.122 194.685 200.835 192.659C201.587 191.77 202.748 190.887 203.346 189.906C203.889 189.016 203.218 187.164 201.951 188.096Z" fill="#89C5CC"/>
</g>
<g opacity="0.5">
<path opacity="0.5" fill-rule="evenodd" clip-rule="evenodd" d="M289.294 46.9839C289.35 46.9753 289.405 46.9692 289.458 46.9658C290.86 46.8769 292.279 46.9137 293.683 46.8811C296.558 46.8145 299.546 46.9717 302.404 46.6348C302.985 46.5595 303.188 47.3051 302.927 47.6917C302.635 48.1256 301.699 48.1035 301.266 48.1677C299.997 48.3557 298.711 48.4213 297.432 48.478C296.087 48.5376 294.742 48.5822 293.397 48.6197C292.231 48.6519 289.646 49.1396 288.568 48.6515C287.728 48.2712 287.748 47.8489 288.09 47.5218C287.883 47.0646 287.917 46.3159 287.872 45.9566C287.686 44.4509 287.573 42.9645 287.571 41.4459C287.565 38.4714 287.571 35.382 288.394 32.5027C288.064 32.3584 287.866 32.1457 287.867 31.8391C287.871 30.0181 294.547 30.4529 295.9 30.4169C297.564 30.3734 299.228 30.3677 300.892 30.3767C301.992 30.3826 303.479 30.1451 304.574 30.3997C306.706 30.895 306.571 34.5527 306.615 36.3213C306.693 39.4938 306.648 42.8289 306.39 45.9939C306.301 47.0867 305.507 48.4718 304.601 46.9654C304.095 46.1255 304.321 44.1634 304.32 43.2354C304.318 39.9364 304.834 36.5376 304.34 33.2555C304.178 32.1795 304.214 32.1068 303.12 32.1294C302.252 32.1475 301.384 32.1763 300.517 32.1945C298.75 32.2317 296.982 32.2559 295.216 32.3206C294.545 32.3454 292.134 32.7667 290.254 32.7651C290.255 32.7802 290.257 32.7952 290.257 32.8106C290.283 34.0825 289.66 35.6262 289.575 36.9644C289.371 40.183 289.614 43.477 289.313 46.6793C289.304 46.7764 289.299 46.8798 289.294 46.9839Z" fill="#89C5CC"/>
<path opacity="0.5" fill-rule="evenodd" clip-rule="evenodd" d="M314.602 47.9145C314.384 47.6912 314.187 47.3634 314.061 46.9544C313.607 45.486 313.564 43.9015 313.531 42.3788C313.459 39.1245 313.495 35.8644 313.475 32.6089C313.18 32.2124 313.355 31.759 313.723 31.4426C314.718 30.5884 317.583 30.8052 318.846 30.7383C320.662 30.6421 322.48 30.62 324.3 30.6133C326.226 30.6036 328.154 30.6383 330.08 30.6975C330.794 30.7194 335.76 30.8444 333.54 32.0493C333.413 32.1183 333.27 32.176 333.114 32.2238C333.206 32.7713 333.218 33.3365 333.203 33.6088C333.108 35.3414 333.068 37.0771 332.991 38.8106C332.905 40.7454 332.824 42.6801 332.757 44.6158C332.722 45.6391 333.072 48.0185 332.262 48.7573C331.717 49.2553 331.344 49.1555 331.093 48.8173C329.156 49.38 324.687 49.0174 323.873 49.0178C322.415 49.0183 314.494 49.9565 314.481 48.268C314.48 48.137 314.522 48.0196 314.602 47.9145ZM315.889 47.3173C318.099 46.8451 322.219 47.1606 323.086 47.1574C324.7 47.151 326.315 47.1735 327.929 47.238C328.432 47.2581 329.662 47.1612 330.633 47.269C330.624 47.181 330.618 47.1006 330.615 47.0311C330.527 45.2886 330.623 43.528 330.679 41.7855C330.735 40.0293 330.822 38.2744 330.89 36.5185C330.924 35.6154 330.696 33.7301 330.943 32.4304C329.771 32.4081 328.541 32.2662 327.75 32.2661C325.893 32.2659 324.037 32.2449 322.18 32.2817C320.175 32.3215 318.148 32.345 316.157 32.6097C316.047 32.6242 315.916 32.6522 315.771 32.6862C316.074 33.9551 315.706 35.9957 315.705 37.1712C315.701 40.4652 315.823 43.7413 315.896 47.0179C315.899 47.1252 315.896 47.2249 315.889 47.3173Z" fill="#89C5CC"/>
<path opacity="0.5" fill-rule="evenodd" clip-rule="evenodd" d="M295.959 48.5505C294.765 49.2485 295.409 52.0404 295.822 53.0061C296.502 54.5938 297.882 55.8362 299.371 56.6604C302.38 58.3261 306.717 57.8837 308.993 60.7716C309.017 60.8015 309.803 61.5808 309.982 60.5716C310.129 59.7434 308.661 58.4785 308.092 58.0633C306.474 56.8828 304.398 56.5021 302.526 55.9124C300.53 55.2834 298.34 54.124 297.503 52.0646C297.206 51.3352 297.771 47.4859 295.959 48.5505Z" fill="#C1DEE2"/>
<path opacity="0.5" fill-rule="evenodd" clip-rule="evenodd" d="M323.253 49.8928C322.159 50.1947 322.883 51.7012 322.881 52.4556C322.879 53.3967 322.578 54.3816 321.998 55.1326C320.529 57.0372 317.651 57.3226 315.493 57.8686C313.926 58.2654 310.177 59.1161 310.031 61.2365C309.867 63.6044 313.176 60.7228 313.456 60.6047C316.549 59.4693 320.551 59.25 322.938 56.7507C323.924 55.7191 324.506 54.3422 324.599 52.921C324.651 52.1208 324.66 49.5082 323.253 49.8928Z" fill="#C1DEE2"/>
<path opacity="0.5" fill-rule="evenodd" clip-rule="evenodd" d="M308.599 62.8678C313.153 61.6673 317.395 64.8603 317.931 69.4535C318.498 74.3009 314.847 78.2033 310.032 78.4172C305.797 78.6054 300.673 75.5709 300.646 70.8959C300.62 66.5148 304.81 63.8647 308.599 62.8678ZM310.79 66.1354C310.011 66.5896 309.869 65.4111 309.317 65.2555C308.764 65.0995 307.874 65.6821 307.413 66.0218C306.63 66.5988 304.461 69.9571 303.41 68.1333C300.22 73.6456 308.173 77.7708 312.695 75.6847C317.662 73.3938 316.695 65.018 310.818 64.9743C311.064 65.3094 311.287 65.8441 310.79 66.1354Z" fill="#89C5CC"/>
<path opacity="0.5" fill-rule="evenodd" clip-rule="evenodd" d="M306.65 69.4293C306.65 70.4349 308.237 70.4349 308.237 69.4293C308.237 68.4351 306.65 68.3925 306.65 69.4293Z" fill="#89C5CC"/>
<path opacity="0.5" fill-rule="evenodd" clip-rule="evenodd" d="M309.442 69.2406C309.442 70.4723 311.387 70.4723 311.387 69.2406C311.387 68.0228 309.442 67.9708 309.442 69.2406Z" fill="#89C5CC"/>
<path opacity="0.5" fill-rule="evenodd" clip-rule="evenodd" d="M307.444 72.1109C305.853 73.047 310.402 74.907 310.581 73.0063C310.659 72.1862 309.865 72.4074 309.336 72.3471C308.83 72.2893 307.924 71.8311 307.444 72.1109Z" fill="#89C5CC"/>
<path opacity="0.5" fill-rule="evenodd" clip-rule="evenodd" d="M306.754 78.7524C306.823 81.1435 306.79 83.5331 307.243 85.8909C307.329 86.3386 307.389 87.963 307.743 88.2956C308.613 89.114 308.627 87.5455 308.661 86.9445C308.782 84.7916 308.556 82.5717 308.506 80.4144C308.495 79.95 308.618 78.9883 308.399 78.5388C308.052 77.8253 306.72 77.6135 306.754 78.7524Z" fill="#C1DEE2"/>
<path opacity="0.5" fill-rule="evenodd" clip-rule="evenodd" d="M305.053 76.8137C301.566 80.7297 296.765 80.4413 291.928 80.7842C289.372 80.9654 286.788 81.3375 284.732 82.9917C283.775 83.7613 282.95 84.7251 282.396 85.8236C282.154 86.3039 281.005 89.0747 282.731 88.4173C283.343 88.1842 283.945 86.3518 284.341 85.8098C285.095 84.7775 286.06 83.9254 287.217 83.3714C289.449 82.3028 292.114 82.321 294.535 82.1854C297.065 82.0437 299.78 81.9113 302.106 80.8104C303.2 80.2924 304.226 79.6465 305.107 78.8142C305.421 78.5166 306.096 78.0112 306.146 77.5562C306.204 77.0362 305.704 76.0841 305.053 76.8137Z" fill="#C1DEE2"/>
<path opacity="0.5" fill-rule="evenodd" clip-rule="evenodd" d="M287.451 88.8333C284.176 88.9428 280.905 89.0754 277.634 89.2826C276.964 89.3251 274.73 89.1896 275.299 90.5639C275.755 91.6656 278.48 90.9369 279.382 90.8835C282.79 90.681 286.212 90.6106 289.613 90.3038C290.377 90.235 293.83 90.2624 292.404 88.9076C291.726 88.2627 288.389 88.8013 287.451 88.8333Z" fill="#89C5CC"/>
<path opacity="0.5" fill-rule="evenodd" clip-rule="evenodd" d="M273.219 90.4141C272.187 91.7709 272.661 95.0685 272.739 96.6996C272.815 98.2802 272.508 101.17 274.57 101.415C273.915 101.329 275.067 101.455 275.254 101.465C275.673 101.488 276.093 101.495 276.512 101.5C277.481 101.51 278.45 101.497 279.418 101.478C281.611 101.434 283.81 101.37 286.001 101.249C286.921 101.198 291.917 101.24 292.114 100.283C292.367 99.0601 287.578 99.752 286.72 99.7911C284.632 99.8869 282.541 99.9071 280.451 99.9345C279.416 99.9481 278.379 99.9583 277.343 99.938C276.915 99.9297 275.222 100.105 274.962 99.8199C274.74 99.5767 274.913 97.342 274.908 97.0002C274.893 95.8858 274.894 94.7688 274.934 93.655C274.961 92.905 275.366 91.4782 275.036 90.7737C274.714 90.0889 273.778 89.8551 273.219 90.4141Z" fill="#89C5CC"/>
<path opacity="0.5" fill-rule="evenodd" clip-rule="evenodd" d="M290.084 90.4774C290.143 92.9595 290.162 95.4919 290.748 97.9193C290.943 98.7273 291.216 100.393 292.027 100.811C292.878 101.25 293.613 100.624 293.669 99.7797C293.739 98.7186 293.171 97.3256 293.055 96.2368C292.919 94.9665 292.84 93.6949 292.793 92.4184C292.758 91.4584 293.05 90.0191 292.135 89.4C291.313 88.8439 290.057 89.4039 290.084 90.4774Z" fill="#89C5CC"/>
<path opacity="0.5" fill-rule="evenodd" clip-rule="evenodd" d="M296.602 89.8714C295.583 90.8867 296.038 94.1015 296.166 95.4061C296.259 96.3617 297.304 101.062 298.87 98.6111C299.563 97.5268 298.683 94.6597 298.689 93.3954C298.693 92.5901 298.978 91.5719 298.84 90.7983C298.659 89.7759 297.525 88.948 296.602 89.8714Z" fill="#89C5CC"/>
<path opacity="0.5" fill-rule="evenodd" clip-rule="evenodd" d="M320.562 98.2615C320.787 98.5045 320.886 98.8507 320.74 99.1894C320.39 100.003 319.102 99.8273 318.402 99.8856C316.066 100.08 313.719 100.21 311.375 100.231C309.11 100.251 306.844 100.193 304.579 100.215C302.693 100.234 300.727 100.616 298.858 100.54C298.077 100.507 297.244 100.252 297.442 99.2423C297.617 98.3469 298.518 98.3398 299.252 98.265C301.463 98.0397 303.676 97.96 305.898 97.9679C310.568 97.9842 315.233 97.96 319.903 97.9356C320.094 97.9514 320.275 98.0248 320.424 98.1367C320.18 97.8401 320.297 97.4007 320.252 96.9719C320.129 95.816 320.05 94.6799 319.831 93.5241C319.656 92.5997 319.524 91.0295 318.668 90.4479C317.733 89.8129 315.658 90.023 314.543 89.9941C311.542 89.9167 308.523 90.1299 305.536 90.4017C304.173 90.5257 302.794 90.6201 301.447 90.8648C300.697 91.0013 298.496 92.1032 297.897 91.4252C296.455 89.7926 302.794 89.1222 303.655 89.0333C306.714 88.7174 309.777 88.4805 312.854 88.4511C314.931 88.4349 318.487 88.2577 320.014 89.9634C320.932 90.9875 321.254 92.6748 321.611 93.9528C321.886 94.9343 322.632 96.7042 322.102 97.7179C321.863 98.1766 321.476 98.5678 320.891 98.4053C320.754 98.3673 320.646 98.3188 320.562 98.2615Z" fill="#89C5CC"/>
<path opacity="0.5" fill-rule="evenodd" clip-rule="evenodd" d="M336.205 85.3163C336.338 85.4875 336.338 85.4875 336.205 85.3163V85.3163ZM315.501 75.2018C313.642 76.2947 317.082 79.5019 317.958 79.9979C319.929 81.114 322.638 81.2823 324.84 81.5962C327.626 81.9937 330.658 82.1399 333.335 83.0536C334.477 83.443 335.201 84.0504 335.948 84.984C336.327 85.457 337.238 87.496 338.068 87.0133C339.739 86.0413 335.236 81.9621 334.244 81.5235C331.989 80.5264 329.322 80.2472 326.911 79.8601C324.668 79.4999 322.377 79.2322 320.19 78.5974C318.988 78.2483 318.133 77.6853 317.44 76.6077C317.008 75.9361 316.653 74.527 315.501 75.2018Z" fill="#C1DEE2"/>
<path opacity="0.5" fill-rule="evenodd" clip-rule="evenodd" d="M325.47 98.8142C324.914 97.7481 324.659 95.6998 324.609 95.2953C324.395 93.5525 324.379 91.8302 324.408 90.0766C324.426 89.114 325.527 88.6549 326.24 89.1949C327.195 88.7951 328.809 88.735 329.677 88.6473C331.103 88.5032 332.54 88.4497 333.97 88.3641C337.308 88.1644 340.643 87.8042 343.987 87.73C344.988 87.7091 346.328 87.6187 347.129 88.3579C348.04 89.1996 348.221 91.2876 348.494 92.4125C348.791 93.6342 349.145 94.8773 349.269 96.1307C349.298 96.4243 349.377 96.9285 349.341 97.3822C349.758 97.439 350.007 97.8432 349.965 98.2847C349.887 99.1043 348.752 99.216 348.088 99.3456C345.881 99.7771 343.521 99.679 341.282 99.7423C336.6 99.8742 331.593 100.631 326.928 100.18C326.13 100.103 325.272 99.8211 325.47 98.8142ZM327.155 97.8498C327.341 97.8483 327.524 97.8518 327.695 97.8488C330.05 97.8076 332.403 97.7362 334.757 97.6456C337.157 97.5535 339.557 97.4506 341.959 97.423C343.868 97.4013 345.834 97.5661 347.757 97.4919C347.344 96.4089 347.406 94.7041 347.186 93.5826C346.967 92.4691 346.884 91.1486 346.436 90.1028C345.933 88.9264 345.495 89.1985 344.184 89.2876C342.835 89.3792 341.489 89.508 340.141 89.6188C337.18 89.8625 334.217 90.0167 331.254 90.2232C329.717 90.3303 328.246 90.7694 326.743 90.9415C326.721 91.4784 326.645 92.0201 326.653 92.412C326.679 93.5675 326.792 94.715 326.893 95.8657C326.933 96.3338 327.127 97.1415 327.155 97.8498Z" fill="#89C5CC"/>
</g>
<g clip-path="url(#clip0)">
<path fill-rule="evenodd" clip-rule="evenodd" d="M121.445 139.167C119.415 136.782 118.041 133.859 118.27 130.584C118.932 121.146 132.056 123.223 134.609 127.986C137.162 132.749 136.859 144.831 133.559 145.682C132.244 146.021 129.44 145.19 126.588 143.469L128.378 156.149H117.805L121.445 139.167Z" fill="#B28B67"/>
<path fill-rule="evenodd" clip-rule="evenodd" d="M130.433 122.798C128.988 122.357 126.891 122.207 126.008 122.309C126.51 121.105 126.709 119.764 126.547 118.458C126.389 117.19 125.823 116.109 125.299 114.977C125.058 114.456 124.784 113.937 124.376 113.538C123.961 113.131 123.434 112.863 122.883 112.735C122.318 112.603 121.728 112.614 121.163 112.733C120.913 112.786 120.688 112.9 120.443 112.964C120.192 113.029 120.07 112.872 119.887 112.714C119.448 112.333 118.804 112.144 118.248 112.077C117.624 112.002 116.977 112.096 116.382 112.301C115.803 112.501 115.247 112.825 114.829 113.298C114.642 113.508 114.473 113.748 114.363 114.012C114.318 114.121 114.311 114.185 114.203 114.225C114.102 114.261 113.985 114.262 113.882 114.297C112.884 114.636 112.031 115.408 111.566 116.399C111.295 116.977 111.166 117.996 111.201 119.137C111.237 120.278 112.266 123.256 113.229 124.342C114.088 125.311 115.352 125.951 116.571 126.231C115.762 127.157 115.223 128.314 114.825 129.491C114.392 130.769 114.124 132.097 114.025 133.45C113.931 134.735 113.923 136.095 114.224 137.353C114.505 138.53 115.108 139.495 116.113 140.107C116.574 140.388 117.07 140.599 117.568 140.791C118.059 140.981 118.552 141.166 119.067 141.272C120.041 141.474 121.163 141.439 121.913 140.663C122.183 140.383 122.481 140.032 122.678 139.69C122.749 139.567 122.792 139.487 122.706 139.367C122.602 139.223 122.435 139.113 122.303 139C121.547 138.358 121.078 137.502 120.96 136.484C120.841 135.451 121.118 134.118 122.121 133.667C123.36 133.11 124.724 133.749 125.824 134.344C126.292 132.692 127.253 131.204 128.759 130.446C130.425 129.607 132.337 129.509 134.049 128.789C134.495 128.602 134.949 128.389 135.278 128.007C135.415 127.847 135.576 127.64 135.631 127.429C135.703 127.151 135.524 126.919 135.386 126.702C134.654 125.556 131.878 123.239 130.433 122.798Z" fill="#191847"/>
<path d="M116.966 270.075C135.701 270.075 150.889 255.511 150.889 237.546C150.889 219.582 135.701 205.018 116.966 205.018C98.2303 205.018 83.0424 219.582 83.0424 237.546C83.0424 255.511 98.2303 270.075 116.966 270.075Z" fill="#C5CFD6"/>
<path fill-rule="evenodd" clip-rule="evenodd" d="M180.9 264.89C175.264 252.379 171.188 241.484 169.551 235.736C166.75 225.895 164.619 217.235 164.08 214C162.796 206.288 173.961 205.839 175.437 209.672C177.671 215.473 181.571 234.533 186.256 263.323L180.9 264.89ZM115.521 225.626C120.692 223.576 138.802 217.16 147.537 215.345C150.047 214.824 152.48 214.339 154.767 213.901C161.565 212.6 165.087 224.9 158.54 225.845C142.233 228.198 119.117 230.629 117.139 230.902C114.366 231.284 112.271 226.914 115.521 225.626Z" fill="#B28B67"/>
<path fill-rule="evenodd" clip-rule="evenodd" d="M158.939 210.517L130.967 196.236V193.127H134.293C161.356 200.043 175.184 204.475 175.78 206.423C175.786 206.444 175.792 206.465 175.797 206.486C175.811 206.504 175.824 206.522 175.837 206.54C181.2 213.938 184.412 250.052 185.467 252.756L175.19 254.293C171.258 239.673 158.681 229.488 159.015 211.978C158.925 211.465 158.902 210.977 158.939 210.517Z" fill="#1F28CF"/>
<path fill-rule="evenodd" clip-rule="evenodd" d="M133.291 218.998C130.732 218.484 128.375 218.026 126.358 217.671C113.331 215.379 109.532 208.386 111.778 193.127L135.78 193.127C139.701 194.256 160.077 202.826 170.649 207.384C177.646 210.401 175.441 221.276 171.478 224.107C171.457 224.28 171.385 224.398 171.258 224.451C149.943 233.311 133.081 228.662 127.448 230.148L124.842 221.905L133.291 218.998Z" fill="#2B44FF"/>
<path fill-rule="evenodd" clip-rule="evenodd" d="M117.407 224.333C115.948 224.464 114.917 224.676 114.314 224.971C113.6 225.32 112.616 225.948 111.362 226.857C111.768 227.69 115.418 235.182 122.312 249.332C124.515 248.979 125.387 248.136 124.927 246.803C124.467 245.47 124.096 244.357 123.814 243.464L123.352 230.704C123.344 230.487 123.163 230.318 122.946 230.326C122.943 230.326 122.94 230.327 122.937 230.327L120.938 230.449C119.831 229.548 119.099 228.733 118.744 228.005C118.448 227.397 118.287 226.428 118.26 225.098L118.26 225.098C118.252 224.665 117.894 224.321 117.461 224.33C117.443 224.33 117.425 224.331 117.407 224.333Z" fill="#E4E4E4"/>
<path fill-rule="evenodd" clip-rule="evenodd" d="M178.383 262.459C177.861 263.829 177.6 264.85 177.6 265.521C177.6 266.316 177.733 267.477 177.999 269.002C178.926 269.002 187.254 269.002 202.983 269.002C203.633 266.866 203.258 265.712 201.859 265.542C200.46 265.371 199.298 265.217 198.373 265.08L186.711 259.905C186.513 259.817 186.282 259.906 186.194 260.104C186.193 260.107 186.192 260.11 186.191 260.113L185.424 261.964C184.129 262.565 183.077 262.866 182.267 262.866C181.591 262.866 180.65 262.586 179.444 262.027L179.444 262.027C179.052 261.846 178.586 262.017 178.404 262.409C178.397 262.426 178.39 262.443 178.383 262.459Z" fill="#E4E4E4"/>
<path fill-rule="evenodd" clip-rule="evenodd" d="M154.31 187.01L168.363 197.321C172.175 198.349 175.359 199.628 177.916 201.157C178.52 201.707 179.25 202.821 176.745 202.628C174.24 202.436 171.596 202.346 171.251 203.2C170.905 204.053 172.421 205.075 171.722 206.227C171.256 206.994 169.056 205.069 165.12 200.449L151.204 194.684L154.31 187.01ZM100.353 187.366L109.56 187.403C103.875 205.738 100.806 215.467 100.353 216.589C99.3339 219.113 101.491 222.958 102.414 225.024C99.4091 226.367 99.7292 221.392 95.939 223.154C92.4794 224.762 89.8477 227.676 85.8506 225.212C85.3592 224.909 84.8207 223.768 86.1218 222.877C89.3634 220.656 94.0346 216.769 94.6657 215.49C95.5264 213.745 97.4223 204.371 100.353 187.366Z" fill="#B28B67"/>
<path fill-rule="evenodd" clip-rule="evenodd" d="M126.517 148.767L130.326 148.114C144.461 160.314 150.267 183.752 167.592 196.168L163.422 201.333C133.365 197.614 125.916 169.026 126.517 148.767Z" fill="#E87613"/>
<path fill-rule="evenodd" clip-rule="evenodd" d="M109.91 196.602C125.185 196.602 136.421 196.602 143.618 196.602C145.158 196.602 144.868 194.379 144.645 193.258C142.076 180.316 132.044 166.365 132.044 147.943L122.321 146.419C114.279 159.343 111.498 175.254 109.91 196.602Z" fill="#DDE3E9"/>
<path fill-rule="evenodd" clip-rule="evenodd" d="M110.181 159.123C108.769 158.717 107.65 157.771 106.826 156.285C103.272 149.878 104.556 146.35 108.354 145.191C112.151 144.031 115.538 146.419 121.589 146.419C121.918 146.419 122.22 146.44 122.494 146.481L125.537 146.655C134.27 176.227 136.679 195.958 132.763 205.846H106.232C104.66 209.508 103.156 212.589 101.72 215.09H94.4904C93.8101 193.11 99.0402 174.454 110.181 159.123Z" fill="#FF9B21"/>
<path fill-rule="evenodd" clip-rule="evenodd" d="M112.009 190.658C112.844 197.633 114.2 202.696 116.078 205.846H106.232C108.066 201.574 109.991 196.511 112.009 190.658V190.658Z" fill="black" fill-opacity="0.1"/>
<path fill-rule="evenodd" clip-rule="evenodd" d="M255.682 111.336C257.712 108.951 259.086 106.028 258.856 102.753C258.195 93.3157 245.07 95.3918 242.517 100.155C239.964 104.918 240.268 117 243.567 117.851C244.883 118.191 247.686 117.359 250.539 115.638L248.748 128.318H259.322L255.682 111.336Z" fill="#B28B67"/>
<path fill-rule="evenodd" clip-rule="evenodd" d="M244.9 97.014C245.142 96.8693 245.649 96.5641 245.906 96.4535C245.966 96.4269 246.392 96.1231 246.403 96.127C246.725 96.2357 247.658 96.6372 247.738 96.9842C247.75 97.0104 247.762 97.0351 247.774 97.0567C247.906 97.2971 248.027 97.5435 248.143 97.7929C248.397 98.3404 248.616 98.9126 248.825 99.4803C249.233 100.586 249.587 101.717 249.912 102.851C250.244 104.006 250.525 105.173 250.84 106.333C251.293 108.001 251.873 109.628 252.323 111.295C252.61 112.359 252.77 113.436 252.695 114.532C252.694 114.545 252.693 114.558 252.692 114.572C252.692 114.577 252.691 114.583 252.691 114.588C252.678 114.756 252.66 114.925 252.635 115.095C252.614 115.239 252.592 115.385 252.57 115.53C252.159 114.71 251.845 113.806 251.512 112.948C251.479 112.864 251.448 112.779 251.418 112.694C251.31 112.52 251.201 112.347 251.09 112.175C250.392 111.09 249.691 110.009 249.022 108.904C247.817 106.917 246.625 104.887 245.197 103.063C244.775 102.524 244.344 101.993 243.928 101.45C243.691 101.141 243.46 100.826 243.237 100.506C243.077 100.278 242.383 99.4803 242.635 99.0012C242.763 98.7561 244.272 97.3894 244.9 97.014Z" fill="#2C2C2C"/>
<path fill-rule="evenodd" clip-rule="evenodd" d="M245.829 96.4935C245.594 96.5727 245.708 96.0822 245.936 95.9095C246.993 95.1098 251.034 94.8195 254.55 95.5501C256.905 96.0396 259.645 97.2577 261.526 98.8238C263.222 100.236 264.388 102.499 264.989 104.685C265.619 106.981 265.715 109.375 265.364 111.729C265.286 112.247 265.121 112.739 265.028 113.246C264.924 113.816 264.871 114.365 264.685 114.919C264.572 115.259 264.379 115.592 264.282 115.933C264.171 116.323 264.239 116.683 264.319 117.079C264.451 117.725 264.614 118.37 264.845 118.987C265.193 119.913 265.615 120.781 265.88 121.742C266.232 123.021 267.705 127.184 266.629 128.319H246.135C246.651 126.909 248.2 125.251 248.513 123.743C248.698 122.854 248.786 120.914 248.805 120.843C249.267 117.657 250.169 116.135 250.734 115.583C251.299 115.03 252.051 114.861 252.09 114.381C252.25 112.4 251.463 110.502 250.885 108.653C250.198 106.449 249.693 104.19 248.984 101.994C248.67 101.021 247.052 96.0822 245.829 96.4935Z" fill="#8991DC"/>
<path fill-rule="evenodd" clip-rule="evenodd" d="M253.015 98.7728C253.787 101.227 253.954 102.537 253.787 105.891H254.167C254.875 102.726 254.244 99.7469 253.491 98.7728H253.015ZM263.383 105.107C261.943 108.605 261.286 110.671 257.264 113.501L257.575 113.719C261.567 111.454 262.73 108.752 263.686 105.253L263.383 105.107ZM257.465 101.548C256.811 106.512 256.62 109.348 253.213 114.779L253.575 114.89C257.082 110.162 257.638 106.302 257.804 101.575L257.465 101.548ZM261.23 116.296L260.919 115.918C256.687 117.245 257.158 119.985 251.827 122.76L252.273 123.03C256.941 121.101 258.032 116.966 261.23 116.296Z" fill="black" fill-opacity="0.2"/>
<path fill-rule="evenodd" clip-rule="evenodd" d="M266.356 165.557L249.802 219.833L241.783 265.992H235.495L243.969 165.557H266.356Z" fill="#997659"/>
<path fill-rule="evenodd" clip-rule="evenodd" d="M272.278 165.557C271.154 195.358 272.477 210.729 272.729 213.437C272.981 216.144 276.427 233.7 284.584 266.901L277.884 264.593C264.992 234.143 260.598 218.318 259.12 214.319C257.641 210.321 253.714 194.067 247.338 165.557H272.278Z" fill="#B28B67"/>
<path fill-rule="evenodd" clip-rule="evenodd" d="M284.486 264.449C285.008 265.819 285.269 266.839 285.269 267.511C285.269 268.306 285.136 269.466 284.87 270.992C283.943 270.992 275.615 270.992 259.886 270.992C259.237 268.855 259.611 267.702 261.01 267.531C262.409 267.361 263.571 267.207 264.496 267.07L276.158 261.894C276.356 261.806 276.587 261.896 276.675 262.094C276.676 262.096 276.677 262.099 276.679 262.102L277.445 263.953C278.74 264.555 279.792 264.855 280.602 264.855C281.278 264.855 282.219 264.576 283.425 264.017L283.425 264.017C283.818 263.835 284.283 264.006 284.465 264.399C284.472 264.415 284.479 264.432 284.486 264.449Z" fill="#E4E4E4"/>
<path fill-rule="evenodd" clip-rule="evenodd" d="M243.135 264.449C243.657 265.819 243.918 266.839 243.918 267.511C243.918 268.306 243.785 269.466 243.519 270.992C242.592 270.992 234.264 270.992 218.535 270.992C217.885 268.855 218.26 267.702 219.659 267.531C221.058 267.361 222.22 267.207 223.145 267.07L234.807 261.894C235.005 261.806 235.236 261.896 235.324 262.094C235.325 262.096 235.326 262.099 235.327 262.102L236.094 263.953C237.389 264.555 238.441 264.855 239.251 264.855C239.927 264.855 240.868 264.576 242.074 264.017L242.074 264.017C242.466 263.835 242.932 264.006 243.114 264.399C243.121 264.415 243.128 264.432 243.135 264.449Z" fill="#E4E4E4"/>
<path fill-rule="evenodd" clip-rule="evenodd" d="M268.556 165.557L261.517 193.21H240.019L243.224 165.557H268.556Z" fill="#69A1AC"/>
<path fill-rule="evenodd" clip-rule="evenodd" d="M272.515 165.557C274.831 172.519 275.271 181.737 273.835 193.21H251.896L245.864 165.557H272.515Z" fill="#89C5CC"/>
<path fill-rule="evenodd" clip-rule="evenodd" d="M224.837 164.009L214.167 177.793C210.786 179.831 208.077 181.938 206.04 184.113C205.611 184.808 205.216 186.079 207.571 185.204C209.927 184.328 212.443 183.513 213.011 184.238C213.579 184.963 212.402 186.362 213.392 187.277C214.051 187.886 215.636 185.429 218.147 179.904L229.937 170.526L224.837 164.009ZM283.745 144.601L274.196 145.982C284.777 168.507 290.369 180.293 290.974 181.34C292.334 183.697 290.732 187.804 290.105 189.979C293.267 190.89 292.259 186.009 296.257 187.225C299.907 188.335 302.918 190.853 306.534 187.856C306.979 187.487 307.353 186.283 305.941 185.582C302.422 183.835 297.256 180.638 296.454 179.459C295.359 177.852 291.122 166.233 283.745 144.601Z" fill="#B28B67"/>
<path fill-rule="evenodd" clip-rule="evenodd" d="M250.833 121.617L246.969 121.502C243.97 143.326 215.44 161.932 214.667 170.041C214.383 173.015 216.66 174.178 215.712 175.205L221.119 178.101C221.814 177.016 223.834 178.537 227.362 176.778C230.889 175.018 254.32 146.469 250.833 121.617Z" fill="#DB2721"/>
<path fill-rule="evenodd" clip-rule="evenodd" d="M244.874 125.301C249.21 153.029 234.123 162.381 239.269 173.024C243.518 181.812 273.216 187.722 276.849 178.01C278.319 174.078 278.599 169.534 278.027 164.717C279.797 168.231 281.233 171.268 282.335 173.828C284.236 178.245 289.21 178.29 289.458 180.059L295.628 177.386C294.856 175.043 297.717 173.446 296.152 168.189C289.14 144.633 276.926 128.562 259.509 119.976L258.975 117.461C258.795 116.615 257.963 116.074 257.117 116.254L257.117 116.254L245.097 118.81C244.25 118.99 243.71 119.823 243.89 120.67C243.89 120.67 243.89 120.67 243.89 120.67L244.874 125.301Z" fill="#FF4133"/>
</g>
<defs>
<clipPath id="clip0">
<rect x="83" y="95" width="224" height="176" fill="white"/>
</clipPath>
</defs>
</svg>
